<?xml version="1.0" encoding="utf-8"?>
<!-- Generator: Adobe Illustrator 27.4.1, SVG Export Plug-In . SVG Version: 6.00 Build 0)  -->
<svg version="1.1" id="Layer_1" xmlns="http://www.w3.org/2000/svg" xmlns:xlink="http://www.w3.org/1999/xlink" x="0px" y="0px"
	 viewBox="0 0 500 500" style="enable-background:new 0 0 500 500;" xml:space="preserve">
<style type="text/css">
	.st0{fill:url(#SVGID_1_);}
	.st1{fill:url(#SVGID_00000072273359109155120940000009014634034635765672_);}
	.st2{fill:url(#SVGID_00000165203148612143769750000005808245883710699648_);}
	.st3{fill:url(#SVGID_00000160169110103120158030000017722084647805670573_);}
	.st4{fill:url(#SVGID_00000129908798764425167230000001983430170188358575_);}
	.st5{fill:url(#SVGID_00000009579556933251519610000004484519441755446667_);}
	.st6{fill:url(#SVGID_00000009558510365352453530000018015141702991820675_);}
	.st7{opacity:0.25;fill:url(#SVGID_00000176723924510251065940000002631961737520547980_);}
	.st8{opacity:0.34;fill:url(#SVGID_00000116227599033804600510000004127155454240782519_);}
	.st9{opacity:0.45;fill:#F3A51E;}
	.st10{fill:url(#SVGID_00000055705363099411543280000009239024680676261007_);}
</style>
<g>
	<g>
		<radialGradient id="SVGID_1_" cx="254.8489" cy="253.4051" r="244.9881" gradientUnits="userSpaceOnUse">
			<stop  offset="0" style="stop-color:#ED2777"/>
			<stop  offset="0.4132" style="stop-color:#EB2977;stop-opacity:0.5868"/>
			<stop  offset="0.5621" style="stop-color:#E52C79;stop-opacity:0.4379"/>
			<stop  offset="0.6682" style="stop-color:#DD317C;stop-opacity:0.3318"/>
			<stop  offset="0.754" style="stop-color:#D13680;stop-opacity:0.246"/>
			<stop  offset="0.8275" style="stop-color:#C23C85;stop-opacity:0.1725"/>
			<stop  offset="0.8926" style="stop-color:#AE428C;stop-opacity:0.1074"/>
			<stop  offset="0.95" style="stop-color:#974894;stop-opacity:0.05"/>
			<stop  offset="1" style="stop-color:#7D4D9F;stop-opacity:0"/>
		</radialGradient>
		<circle class="st0" cx="250.1" cy="249.9" r="249.9"/>
		
			<radialGradient id="SVGID_00000003085081528878575920000014628664638553402286_" cx="216.9774" cy="44.256" r="626.5495" gradientUnits="userSpaceOnUse">
			<stop  offset="0" style="stop-color:#553594"/>
			<stop  offset="0.963" style="stop-color:#0E1026"/>
		</radialGradient>
		<circle style="fill:url(#SVGID_00000003085081528878575920000014628664638553402286_);" cx="250.1" cy="249.9" r="213.65"/>
		
			<radialGradient id="SVGID_00000152967710545853765020000005278928887612105919_" cx="216.9774" cy="44.256" r="626.5495" gradientUnits="userSpaceOnUse">
			<stop  offset="0" style="stop-color:#553594"/>
			<stop  offset="0.963" style="stop-color:#0E1026"/>
		</radialGradient>
		<circle style="fill:url(#SVGID_00000152967710545853765020000005278928887612105919_);" cx="250.1" cy="249.9" r="213.65"/>
		<g>
			
				<radialGradient id="SVGID_00000165944958633163433210000002480837070051972276_" cx="164.7891" cy="103.3762" r="329.4367" gradientUnits="userSpaceOnUse">
				<stop  offset="0" style="stop-color:#ED2777"/>
				<stop  offset="0.1262" style="stop-color:#E82A78"/>
				<stop  offset="0.2753" style="stop-color:#DE307C"/>
				<stop  offset="0.4359" style="stop-color:#CD3881"/>
				<stop  offset="0.6047" style="stop-color:#B6408A"/>
				<stop  offset="0.7781" style="stop-color:#974894"/>
				<stop  offset="0.8985" style="stop-color:#7D4D9F"/>
			</radialGradient>
			<path style="fill:url(#SVGID_00000165944958633163433210000002480837070051972276_);" d="M340.52,331.97
				c1.74-2.92,3.36-6.18,2.93-9.55c-0.85-6.59-8.77-9.65-15.41-9.74c-15.76-0.2-30.21,8.43-42.81,17.9
				c-12.6,9.47-24.68,20.26-39.5,25.6c-14.83,5.34-33.65,3.65-43.33-8.79c-10.15-13.05-6.72-32.2-13.65-47.22
				c-0.93-2.01-2.12-4.02-4-5.2c-4.57-2.87-10.4,0.35-14.85,3.4c-25.34,17.32-53.61,31.74-84.12,35.13
				c-10.87,1.21-22.05,0.79-32.86-1.25c16.75,40.07,45.38,73.91,81.46,97.21c0.58-2.41,1.31-4.78,2.38-7.06
				c11.37-24.2,43.35-28.21,70.01-30.22c25.37-1.91,50.96-5.06,74.77-14.04C305.35,369.15,327.48,353.82,340.52,331.97z"/>
			
				<radialGradient id="SVGID_00000145016999508685371590000000966009350859805625_" cx="164.7887" cy="103.3765" r="329.6912" gradientUnits="userSpaceOnUse">
				<stop  offset="0" style="stop-color:#ED2777"/>
				<stop  offset="0.1262" style="stop-color:#E82A78"/>
				<stop  offset="0.2753" style="stop-color:#DE307C"/>
				<stop  offset="0.4359" style="stop-color:#CD3881"/>
				<stop  offset="0.6047" style="stop-color:#B6408A"/>
				<stop  offset="0.7781" style="stop-color:#974894"/>
				<stop  offset="0.8985" style="stop-color:#7D4D9F"/>
			</radialGradient>
			<path style="fill:url(#SVGID_00000145016999508685371590000000966009350859805625_);" d="M462.16,275.6
				c-14.4,0.37-28.54,1.4-40.4,9.08c-19.72,12.77-25.28,39.66-22.19,62.95c0.81,6.09,2.03,12.58-0.53,18.17
				c-1.57,3.43-4.41,6.1-7.27,8.56c-27.06,23.23-61.63,35.41-92.5,53.27c-13.5,7.81-27.78,19.6-27.87,34.86
				C370.91,452.64,450.29,374.51,462.16,275.6z"/>
			
				<radialGradient id="SVGID_00000074426969454179606310000015165719653507336344_" cx="164.7893" cy="103.376" r="329.4365" gradientUnits="userSpaceOnUse">
				<stop  offset="0" style="stop-color:#ED2777"/>
				<stop  offset="0.1262" style="stop-color:#E82A78"/>
				<stop  offset="0.2753" style="stop-color:#DE307C"/>
				<stop  offset="0.4359" style="stop-color:#CD3881"/>
				<stop  offset="0.6047" style="stop-color:#B6408A"/>
				<stop  offset="0.7781" style="stop-color:#974894"/>
				<stop  offset="0.8985" style="stop-color:#7D4D9F"/>
			</radialGradient>
			<path style="fill:url(#SVGID_00000074426969454179606310000015165719653507336344_);" d="M36.45,249.9c0,1.24,0.07,2.46,0.09,3.7
				c3.48,2.61,7.33,4.72,11.46,6.13c9.4,3.22,20.24,3.45,27.88,9.8c4.17,3.47,6.89,8.42,11.03,11.93
				c10.29,8.73,26.73,5.91,37.23-2.57c10.5-8.48,16.54-21.14,22.46-33.28c5.92-12.13,12.46-24.66,23.52-32.4
				c9.15-6.4,20.96-8.87,31.91-6.66c9.69,1.96,18.99,7.4,28.8,6.13c12.77-1.66,21.68-14.92,22.12-27.79
				c0.44-12.87-5.71-25.08-13.09-35.64c-3.64-5.21-7.68-10.29-9.81-16.28c-5.75-16.17,3.92-33.84,15.83-46.21
				c11.91-12.36,26.64-22.56,34.77-37.68c1.69-3.15,2.98-6.6,3.46-10.11c-11.08-1.77-22.43-2.73-34.01-2.73
				C132.11,36.24,36.45,131.9,36.45,249.9z"/>
			
				<radialGradient id="SVGID_00000129923483373982847080000009902174076474891931_" cx="164.7895" cy="103.3763" r="329.4355" gradientUnits="userSpaceOnUse">
				<stop  offset="0" style="stop-color:#ED2777"/>
				<stop  offset="0.1262" style="stop-color:#E82A78"/>
				<stop  offset="0.2753" style="stop-color:#DE307C"/>
				<stop  offset="0.4359" style="stop-color:#CD3881"/>
				<stop  offset="0.6047" style="stop-color:#B6408A"/>
				<stop  offset="0.7781" style="stop-color:#974894"/>
				<stop  offset="0.8985" style="stop-color:#7D4D9F"/>
			</radialGradient>
			<path style="fill:url(#SVGID_00000129923483373982847080000009902174076474891931_);" d="M338.24,89.49
				c3.85,12.83,11.85,23.96,17.61,36.05s9.19,26.59,3.5,38.71c-6.97,14.84-24.48,20.71-39.39,27.54
				c-13.39,6.14-25.91,14.16-37.08,23.76c-12.38,10.64-23.84,25.65-21.07,41.74c2.9,16.83,20.18,27.25,36.69,31.62
				c10.39,2.75,21.87,3.93,31.57-0.73c18.37-8.81,23.47-34.66,41.82-43.52c14.74-7.12,32.02-0.64,48.33,0.68
				c14.97,1.21,29.76-2.37,43.05-9.26c-5.14-80.48-54.82-148.81-124.67-180.65C335.26,66.49,334.91,78.42,338.24,89.49z"/>
		</g>
		
			<radialGradient id="SVGID_00000103259910994960407850000018144337915906914977_" cx="220.6445" cy="95.2677" r="568.2921" gradientUnits="userSpaceOnUse">
			<stop  offset="0" style="stop-color:#553594"/>
			<stop  offset="0.963" style="stop-color:#0E1026"/>
		</radialGradient>
		<path style="opacity:0.25;fill:url(#SVGID_00000103259910994960407850000018144337915906914977_);" d="M389.7,88.23
			c4.13,16.58,6.35,33.91,6.35,51.76c0,118-95.66,213.65-213.65,213.65c-53.38,0-102.15-19.62-139.6-51.99
			c23.14,92.98,107.16,161.89,207.3,161.89c118,0,213.65-95.66,213.65-213.65C463.76,185.28,435.03,127.41,389.7,88.23z"/>
		
			<radialGradient id="SVGID_00000095308136629009463890000003474388219316825006_" cx="225.9491" cy="165.8819" r="465.7976" gradientUnits="userSpaceOnUse">
			<stop  offset="0" style="stop-color:#ED2777"/>
			<stop  offset="0.1262" style="stop-color:#E82A78"/>
			<stop  offset="0.2753" style="stop-color:#DE307C"/>
			<stop  offset="0.4359" style="stop-color:#CD3881"/>
			<stop  offset="0.6047" style="stop-color:#B6408A"/>
			<stop  offset="0.7781" style="stop-color:#974894"/>
			<stop  offset="0.8985" style="stop-color:#7D4D9F"/>
		</radialGradient>
		<path style="opacity:0.34;fill:url(#SVGID_00000095308136629009463890000003474388219316825006_);" d="M426.91,160.44
			c7.17,20.51,11.09,42.54,11.09,65.5c0,109.8-89.01,198.81-198.81,198.81c-76.82,0-143.4-43.6-176.5-107.37
			c27.13,77.52,100.87,133.13,187.64,133.13c109.8,0,198.81-89.01,198.81-198.81C449.14,218.78,441.08,187.77,426.91,160.44z"/>
		<path class="st9" d="M49.72,268.85c0-118,95.66-213.65,213.65-213.65c68.39,0,129.22,32.17,168.33,82.16
			C394.02,76.67,326.8,36.24,250.1,36.24c-118,0-213.65,95.66-213.65,213.65c0,49.61,16.95,95.23,45.32,131.49
			C61.48,348.7,49.72,310.16,49.72,268.85z"/>
	</g>
	
		<radialGradient id="SVGID_00000026885854803518832210000002872610883846624413_" cx="204.6507" cy="70.2119" r="401.0785" gradientUnits="userSpaceOnUse">
		<stop  offset="0" style="stop-color:#553594"/>
		<stop  offset="0.963" style="stop-color:#0E1026"/>
	</radialGradient>
	<path style="fill:url(#SVGID_00000026885854803518832210000002872610883846624413_);" d="M68,292.9
		c-6.37-25.36,3.62-63.77,8.72-82.22c12.03-43.49,36.98-82.53,73.33-109.64c95.05-70.87,204.5-19.18,233.56,12.51
		c29.07,31.68-5.11,65.87-57.64,65.03c-52.53-0.83-104.22-1.67-134.24,25.01s-27.51,94.21-67.54,108.39
		c-13.24,4.69-32.39,9.2-44.86-0.2C73.55,307.42,69.99,300.79,68,292.9z"/>
	<g>
		<path class="st9" d="M162.91,129.12c11.57,10.18,6.29,35.09-11.79,55.63c-18.08,20.54-42.12,28.93-53.68,18.75
			c-11.57-10.18-6.29-35.09,11.79-55.63C127.31,127.33,151.34,118.94,162.91,129.12z"/>
		<path class="st9" d="M224.46,89.42c4.24,8.01-3.87,20.61-18.1,28.13c-14.23,7.52-29.2,7.12-33.43-0.9
			c-4.24-8.01,3.87-20.61,18.1-28.13C205.25,81,220.22,81.4,224.46,89.42z"/>
	</g>
</g>
</svg>
