<?xml version="1.0" encoding="UTF-8"?>
<svg xmlns="http://www.w3.org/2000/svg" xmlns:xlink="http://www.w3.org/1999/xlink" viewBox="0 0 162.87 115.69">
  <defs>
    <style>
      .cls-1 {
        fill: url(#radial-gradient-10);
      }

      .cls-1, .cls-2, .cls-3, .cls-4, .cls-5, .cls-6, .cls-7, .cls-8, .cls-9, .cls-10, .cls-11, .cls-12, .cls-13, .cls-14, .cls-15, .cls-16, .cls-17, .cls-18, .cls-19, .cls-20, .cls-21, .cls-22 {
        mix-blend-mode: multiply;
      }

      .cls-1, .cls-2, .cls-3, .cls-4, .cls-5, .cls-6, .cls-7, .cls-8, .cls-9, .cls-10, .cls-11, .cls-12, .cls-14, .cls-16, .cls-17, .cls-18, .cls-19, .cls-20, .cls-21, .cls-22 {
        opacity: .5;
      }

      .cls-2 {
        fill: url(#radial-gradient-21);
      }

      .cls-3 {
        fill: url(#radial-gradient-14);
      }

      .cls-4 {
        fill: url(#radial-gradient-17);
      }

      .cls-5 {
        fill: url(#radial-gradient-19);
      }

      .cls-6 {
        fill: url(#radial-gradient-4);
      }

      .cls-23 {
        isolation: isolate;
      }

      .cls-7 {
        fill: url(#radial-gradient-5);
      }

      .cls-8 {
        fill: url(#radial-gradient-8);
      }

      .cls-24 {
        fill: url(#radial-gradient-22);
      }

      .cls-24, .cls-25, .cls-26, .cls-27 {
        mix-blend-mode: screen;
      }

      .cls-9 {
        fill: url(#radial-gradient-20);
      }

      .cls-10 {
        fill: url(#radial-gradient-9);
      }

      .cls-11 {
        fill: url(#radial-gradient-3);
      }

      .cls-25, .cls-13, .cls-28 {
        fill: #f3a400;
      }

      .cls-25, .cls-27 {
        opacity: .45;
      }

      .cls-12 {
        fill: url(#radial-gradient-15);
      }

      .cls-13, .cls-15 {
        opacity: .54;
      }

      .cls-29 {
        fill: url(#radial-gradient);
      }

      .cls-14 {
        fill: url(#radial-gradient-13);
      }

      .cls-16 {
        fill: url(#radial-gradient-18);
      }

      .cls-17 {
        fill: url(#radial-gradient-7);
      }

      .cls-18 {
        fill: url(#radial-gradient-2);
      }

      .cls-19 {
        fill: url(#radial-gradient-16);
      }

      .cls-20 {
        fill: url(#radial-gradient-6);
      }

      .cls-21 {
        fill: url(#radial-gradient-12);
      }

      .cls-22 {
        fill: url(#radial-gradient-11);
      }
    </style>
    <radialGradient id="radial-gradient" cx="227.06" cy="-26.86" fx="227.06" fy="-26.86" r="104.07" gradientTransform="translate(22.52 -180.2) rotate(74.06)" gradientUnits="userSpaceOnUse">
      <stop offset="0" stop-color="#f07"/>
      <stop offset=".14" stop-color="#fa0279"/>
      <stop offset=".31" stop-color="#eb0a7f"/>
      <stop offset=".49" stop-color="#d3178a"/>
      <stop offset=".67" stop-color="#b22998"/>
      <stop offset=".87" stop-color="#883fab"/>
      <stop offset=".9" stop-color="#8144af"/>
    </radialGradient>
    <radialGradient id="radial-gradient-2" cx="227.07" cy="-18.08" fx="227.07" fy="-18.08" r="97.43" gradientTransform="translate(-162.3 64.86) rotate(-3.26)" xlink:href="#radial-gradient"/>
    <radialGradient id="radial-gradient-3" cx="229.88" cy="-3.98" fx="229.88" fy="-3.98" r="81.87" gradientTransform="translate(-162.3 64.86) rotate(-3.26)" xlink:href="#radial-gradient"/>
    <radialGradient id="radial-gradient-4" cx="233.21" cy="-72.98" fx="233.21" fy="-72.98" r="64.18" gradientTransform="translate(-162.3 64.86) rotate(-3.26)" xlink:href="#radial-gradient"/>
    <radialGradient id="radial-gradient-5" cx="237.42" cy="-30.69" fx="237.42" fy="-30.69" r="21.58" gradientTransform="translate(-162.3 64.86) rotate(-3.26)" xlink:href="#radial-gradient"/>
    <radialGradient id="radial-gradient-6" cx="246.63" cy="-60.16" fx="246.63" fy="-60.16" r="44.73" gradientTransform="translate(-162.3 64.86) rotate(-3.26)" xlink:href="#radial-gradient"/>
    <radialGradient id="radial-gradient-7" cx="254.58" cy="57.57" fx="254.58" fy="57.57" r="29.15" gradientTransform="translate(-177.1 -45.15) rotate(.79) scale(1 1.62)" xlink:href="#radial-gradient"/>
    <radialGradient id="radial-gradient-8" cx="236.36" cy="14.88" fx="236.36" fy="14.88" r="30.63" gradientTransform="translate(-162.3 64.86) rotate(-3.26)" xlink:href="#radial-gradient"/>
    <radialGradient id="radial-gradient-9" cx="474.25" cy="-96.21" fx="474.25" fy="-96.21" r="62.55" gradientTransform="translate(12.75 566.8) rotate(-71.58)" xlink:href="#radial-gradient"/>
    <radialGradient id="radial-gradient-10" cx="282.42" cy="-36.26" fx="282.42" fy="-36.26" r="30.71" gradientTransform="translate(-162.3 64.86) rotate(-3.26)" xlink:href="#radial-gradient"/>
    <radialGradient id="radial-gradient-11" cx="274.68" cy="-17.77" fx="274.68" fy="-17.77" r="21.24" gradientTransform="translate(-162.3 64.86) rotate(-3.26)" xlink:href="#radial-gradient"/>
    <radialGradient id="radial-gradient-12" cx="269.98" cy="20.83" fx="269.98" fy="20.83" r="17.97" gradientTransform="translate(-162.3 64.86) rotate(-3.26)" xlink:href="#radial-gradient"/>
    <radialGradient id="radial-gradient-13" cx="273.74" cy="-41.45" fx="273.74" fy="-41.45" r="58.86" gradientTransform="translate(-162.3 64.86) rotate(-3.26)" xlink:href="#radial-gradient"/>
    <radialGradient id="radial-gradient-14" cx="410.77" cy="-165.4" fx="410.77" fy="-165.4" r="56.02" gradientTransform="translate(-95.88 471.48) rotate(-54.04)" xlink:href="#radial-gradient"/>
    <radialGradient id="radial-gradient-15" cx="201.83" cy="-24.86" fx="201.83" fy="-24.86" r="20.8" gradientTransform="translate(-162.3 64.86) rotate(-3.26)" xlink:href="#radial-gradient"/>
    <radialGradient id="radial-gradient-16" cx="206.6" cy="-69.74" fx="206.6" fy="-69.74" r="52.18" gradientTransform="translate(-162.3 64.86) rotate(-3.26)" xlink:href="#radial-gradient"/>
    <radialGradient id="radial-gradient-17" cx="229.72" cy="-45.01" fx="229.72" fy="-45.01" r="15.21" gradientTransform="translate(-162.3 64.86) rotate(-3.26)" xlink:href="#radial-gradient"/>
    <radialGradient id="radial-gradient-18" cx="169.03" cy="174.31" fx="169.03" fy="174.31" r="49.89" gradientTransform="translate(45.21 -205.52) rotate(39.83) scale(1 1.05)" xlink:href="#radial-gradient"/>
    <radialGradient id="radial-gradient-19" cx="205.87" cy="-.08" fx="205.87" fy="-.08" r="20.36" gradientTransform="translate(-162.3 64.86) rotate(-3.26)" xlink:href="#radial-gradient"/>
    <radialGradient id="radial-gradient-20" cx="225.1" cy="29.22" fx="225.1" fy="29.22" r="17.14" gradientTransform="translate(-162.3 64.86) rotate(-3.26)" xlink:href="#radial-gradient"/>
    <radialGradient id="radial-gradient-21" cx="204.81" cy="-1.34" fx="204.81" fy="-1.34" r="37.72" gradientTransform="translate(-162.3 64.86) rotate(-3.26)" xlink:href="#radial-gradient"/>
    <radialGradient id="radial-gradient-22" cx="245.97" cy="5.25" fx="245.97" fy="5.25" r="58.36" gradientTransform="translate(-95.33 -110.84) rotate(41.74)" gradientUnits="userSpaceOnUse">
      <stop offset=".05" stop-color="#f3a400"/>
      <stop offset=".41" stop-color="#f2a301" stop-opacity=".99"/>
      <stop offset=".54" stop-color="#f29f06" stop-opacity=".96"/>
      <stop offset=".63" stop-color="#f2990f" stop-opacity=".92"/>
      <stop offset=".7" stop-color="#f1911c" stop-opacity=".85"/>
      <stop offset=".77" stop-color="#f1852d" stop-opacity=".76"/>
      <stop offset=".82" stop-color="#f07841" stop-opacity=".64"/>
      <stop offset=".87" stop-color="#ef675a" stop-opacity=".51"/>
      <stop offset=".92" stop-color="#ee5476" stop-opacity=".35"/>
      <stop offset=".96" stop-color="#ed3f95" stop-opacity=".19"/>
      <stop offset="1" stop-color="#ec29b8" stop-opacity="0"/>
    </radialGradient>
  </defs>
  <g class="cls-23">
    <g id="Vrstva_1" data-name="Vrstva 1">
      <g>
        <g>
          <g>
            <circle class="cls-29" cx="83.28" cy="57.85" r="47.33" transform="translate(8.56 126.4) rotate(-77.32)"/>
            <path class="cls-25" d="m38.38,62.83c-1.49-26.1,18.47-48.46,44.57-49.95,13.17-.75,25.39,3.97,34.45,12.17-9.24-9.6-22.45-15.27-36.8-14.46-26.1,1.49-46.05,23.85-44.57,49.95.74,12.93,6.6,24.34,15.5,32.4-7.57-7.86-12.48-18.36-13.15-30.11Z"/>
            <path class="cls-25" d="m56.87,84.96c-1.32-23.14,16.37-42.96,39.51-44.28,11.31-.64,21.81,3.26,29.77,10.11-4.4-19.7-22.52-33.88-43.33-32.7-23.14,1.32-40.83,21.14-39.51,44.28.67,11.83,6.19,22.23,14.52,29.4-.49-2.21-.82-4.48-.96-6.81Z"/>
            <path class="cls-18" d="m110.53,19.15c1.53,4.03,2.48,8.35,2.74,12.88,1.36,23.81-16.85,44.21-40.66,45.57-14.71.84-28.12-5.8-36.54-16.61,1.72,25.87,23.96,45.58,49.91,44.11,26.1-1.49,46.05-23.85,44.57-49.95-.85-15-8.62-27.97-20.01-36Z"/>
            <path class="cls-11" d="m121.68,35.4c1.87,4.51,3.04,9.4,3.33,14.56,1.4,24.61-17.41,45.69-42.02,47.09-17.19.98-32.65-7.92-40.89-21.75,7.08,17,24.29,28.51,43.73,27.4,24.61-1.4,43.42-22.48,42.02-47.09-.42-7.39-2.63-14.25-6.17-20.2Z"/>
            <g>
              <path class="cls-6" d="m112.93,34.11c-1.7,5.14-8.87,7.38-16.02,5.01-7.14-2.37-11.55-8.45-9.85-13.59,1.7-5.14,8.87-7.38,16.02-5.01,7.14,2.37,11.55,8.45,9.85,13.59Zm-29.41,1.2c-3.28-1.09-6.58-.06-7.36,2.3-.78,2.36,1.24,5.16,4.53,6.25,3.28,1.09,6.58.06,7.36-2.3.78-2.36-1.24-5.16-4.53-6.25Z"/>
              <g>
                <path class="cls-7" d="m83.52,35.31c-3.28-1.09-6.58-.06-7.36,2.3-.12.35-.15.72-.15,1.09,1.32-1.51,3.99-2.05,6.67-1.16,2.79.93,4.66,3.09,4.68,5.16.3-.34.55-.71.69-1.14.78-2.36-1.24-5.16-4.53-6.25Z"/>
                <path class="cls-20" d="m103.09,20.53c-7.14-2.37-14.31-.13-16.02,5.01-.1.3-.17.61-.23.91,2.41-4.18,8.91-5.85,15.41-3.69,6.72,2.23,11.02,7.75,10.08,12.68.24-.42.45-.85.61-1.32,1.7-5.14-2.7-11.22-9.85-13.59Z"/>
              </g>
            </g>
            <g>
              <path class="cls-17" d="m100.46,86.73c-.06,4.23-4.87,7.59-10.76,7.51-5.88-.08-10.6-3.58-10.54-7.81.06-4.23,4.87-7.59,10.76-7.51,5.88.08,10.6,3.58,10.54,7.81Z"/>
              <path class="cls-8" d="m99.41,83.34c.02.21.04.43.04.65-.06,4.23-4.87,7.59-10.76,7.51-4.19-.06-7.79-1.86-9.49-4.41.4,3.93,4.93,7.08,10.51,7.16,5.88.08,10.7-3.28,10.76-7.51.02-1.21-.37-2.36-1.05-3.39Z"/>
            </g>
            <g>
              <path class="cls-10" d="m123.9,53c3.17,1.06,3.82,7.7,1.44,14.84-2.38,7.14-6.88,12.07-10.05,11.01-3.17-1.06-3.82-7.7-1.44-14.84,2.38-7.14,6.88-12.07,10.05-11.01Zm-10.99,32.11c-1.96,1.92-2.85,4.18-2,5.05.85.87,3.13.02,5.09-1.9,1.96-1.92,2.85-4.18,2-5.05-.85-.87-3.13-.02-5.09,1.9Zm5.91-41.07c.92,3.68,2.99,6.34,4.63,5.93s2.22-3.73,1.3-7.41c-.92-3.68-2.99-6.34-4.63-5.93s-2.22,3.73-1.3,7.41Zm-5.21,7.37c-1.01,2.55-.91,4.98.23,5.43,1.13.45,2.87-1.25,3.88-3.8,1.01-2.55.91-4.98-.23-5.43-1.13-.45-2.87,1.25-3.88,3.8Z"/>
              <g>
                <path class="cls-1" d="m122.82,42.25c.85,3.41.4,6.48-.96,7.24.54.4,1.09.6,1.6.47,1.64-.41,2.22-3.73,1.3-7.41-.92-3.68-2.99-6.34-4.63-5.93-.12.03-.23.11-.33.17,1.21.89,2.4,2.92,3.03,5.46Z"/>
                <path class="cls-22" d="m115.78,52.73c-.66,1.66-1.62,2.95-2.53,3.53.15.27.34.48.59.57,1.13.45,2.87-1.25,3.88-3.8,1.01-2.55.91-4.98-.23-5.43-.39-.16-.86-.04-1.35.27.53.96.43,2.86-.36,4.85Z"/>
                <path class="cls-21" d="m116.14,83.03c.68.94-.2,3.08-2.07,4.93-1.08,1.06-2.25,1.78-3.23,2.08.03.04.04.09.08.13.85.87,3.13.02,5.09-1.9,1.96-1.92,2.85-4.18,2-5.05-.38-.39-1.06-.42-1.86-.17Z"/>
                <path class="cls-14" d="m123.9,53c-.46-.15-.95-.17-1.46-.08,2.75,1.55,3.22,7.86.96,14.62-2.03,6.1-5.61,10.58-8.59,11.09.15.09.31.17.48.22,3.17,1.06,7.67-3.87,10.05-11.01,2.38-7.14,1.73-13.78-1.44-14.84Z"/>
              </g>
            </g>
            <g>
              <path class="cls-3" d="m63.84,21.64c2.71,1.96,1.32,8.49-3.1,14.58-4.42,6.09-10.2,9.43-12.9,7.47-2.71-1.96-1.32-8.49,3.1-14.58,4.42-6.09,10.2-9.43,12.9-7.47Zm6.56-4.41c-2.46,1.22-4.01,3.09-3.47,4.18.54,1.09,2.97.99,5.43-.23s4.01-3.09,3.47-4.18c-.54-1.09-2.97-.99-5.43.23Zm-29.32,30.42c-1.2,2.46-1.29,4.89-.2,5.43,1.09.53,2.96-1.03,4.16-3.49,1.2-2.46,1.29-4.89.2-5.43-1.09-.54-2.96,1.03-4.16,3.49Z"/>
              <g>
                <path class="cls-12" d="m42.32,49.61c1.04-2.13,2.57-3.58,3.68-3.59,0-.92-.24-1.61-.76-1.87-1.09-.53-2.96,1.03-4.16,3.49-1.2,2.46-1.29,4.89-.2,5.43.15.07.31.1.48.1.01-1,.33-2.27.96-3.56Z"/>
                <path class="cls-19" d="m52.18,31.08c4.4-6.06,10.13-9.4,12.86-7.5-.21-.83-.6-1.5-1.2-1.94-2.71-1.96-8.48,1.38-12.9,7.47-4.42,6.09-5.81,12.62-3.1,14.58.01.01.03.02.05.03-.73-2.91.86-7.91,4.3-12.64Z"/>
                <path class="cls-4" d="m71.64,19.19c1.52-.75,3.02-1.08,4.08-.96.21-.46.27-.89.1-1.24-.54-1.09-2.97-.99-5.43.23-2.46,1.22-4.01,3.09-3.47,4.18.21.42.69.66,1.34.73.46-.98,1.69-2.11,3.37-2.94Z"/>
              </g>
            </g>
            <g>
              <path class="cls-16" d="m62.84,92.73c-1.7,2.03-6.61.73-10.98-2.91-4.36-3.64-6.53-8.24-4.83-10.28,1.7-2.03,6.61-.73,10.98,2.91,4.36,3.64,6.53,8.24,4.83,10.28Zm9.28,1.1c-2.5-1.32-5.03-1.45-5.65-.28-.62,1.17.91,3.18,3.42,4.5,2.5,1.32,5.03,1.45,5.65.28.62-1.17-.91-3.18-3.42-4.5Zm-21.09-23.18c-1.88-2.12-4.2-3.12-5.19-2.25-.99.88-.26,3.3,1.62,5.42s4.2,3.12,5.19,2.25c.99-.88.26-3.3-1.62-5.42Z"/>
              <g>
                <path class="cls-5" d="m52.64,76.07c.32-.28.44-.73.42-1.27-1.16.11-2.93-.85-4.42-2.54-1.28-1.44-2-3.01-2.04-4.15-.3.03-.57.11-.77.29-.99.88-.26,3.3,1.62,5.42s4.2,3.12,5.19,2.25Z"/>
                <path class="cls-9" d="m71.07,96.5c-1.97-1.04-3.32-2.5-3.51-3.65-.51.11-.91.34-1.1.7-.62,1.17.91,3.18,3.42,4.5,2.5,1.32,5.03,1.45,5.65.28.13-.25.15-.54.09-.86-1.12.25-2.83-.08-4.55-.98Z"/>
                <path class="cls-2" d="m53.05,88.27c-3.76-3.13-5.87-6.97-5.3-9.28-.28.15-.52.33-.72.56-1.7,2.03.47,6.64,4.83,10.28,4.36,3.64,9.28,4.94,10.98,2.91.24-.28.38-.63.47-1-2.11,1.13-6.4-.25-10.26-3.47Z"/>
              </g>
            </g>
            <circle class="cls-24" cx="83.28" cy="57.85" r="57.85" transform="translate(-16.51 75.83) rotate(-45)"/>
          </g>
          <g class="cls-27">
            <g>
              <g class="cls-27">
                <path class="cls-28" d="m64.19,31.81c2.58,2.03,1.76,7.39-1.84,11.98-3.6,4.59-8.61,6.66-11.19,4.64-2.58-2.03-1.76-7.39,1.84-11.98,3.6-4.59,8.61-6.66,11.19-4.64Z"/>
              </g>
              <g class="cls-27">
                <path class="cls-28" d="m76.8,22.62c1,1.65-.57,4.43-3.51,6.2-2.94,1.77-6.13,1.87-7.12.21-1-1.65.57-4.43,3.51-6.2,2.94-1.77,6.13-1.87,7.12-.21Z"/>
              </g>
            </g>
          </g>
        </g>
        <g>
          <path class="cls-28" d="m161.99,10.48c-4.53-7.59-25.67-3.93-52.96,7.79,1.61,1.01,3.12,2.26,4.54,3.59,17.48-6.4,30.42-7.79,33.56-2.52,5.35,8.97-19.73,33.78-56.01,55.41-36.28,21.64-70.03,31.9-75.38,22.93-3.39-5.69,5.46-17.75,21.64-31.33-.61-1.74-.99-3.51-1.14-5.3C10.9,80.5-3.86,98.6.88,106.55c6.56,11,47.94-1.59,92.43-28.12,44.49-26.53,75.24-56.95,68.68-67.95Z"/>
          <path class="cls-13" d="m117.03,16.72c-.16-.55-.17-1.11-.07-1.69-2.58,1-5.22,2.08-7.93,3.25,1.61,1.01,3.12,2.26,4.54,3.59,17.48-6.4,30.42-7.79,33.56-2.52,5.35,8.97-19.73,33.78-56.01,55.41-36.28,21.64-70.03,31.9-75.38,22.93-3.39-5.69,5.46-17.75,21.64-31.33-.61-1.74-.99-3.51-1.14-5.3-13.96,10.71-24.69,21-30.74,29.42,7.41-7.7,20.27-20.64,20.82-18.25.76,3.37-29.1,23.56-8.8,30.37s70.32-23.92,89.54-36.1c19.22-12.19,42.2-33.12,46.53-47.02,4.33-13.9-34.79,3.4-36.57-2.75Z"/>
          <g class="cls-26">
            <g>
              <g class="cls-15">
                <path class="cls-28" d="m17.52,105.03c-.05.21-.88.22-2.1.43-1.23.17-2.84.6-4.73.66-1.86.05-3.92-.5-5.19-1.71-.63-.58-1.01-1.23-1.22-1.69-.21-.47-.27-.75-.27-.75,0,0-.07-.28-.11-.77-.04-.49,0-1.17.14-1.91.3-1.49,1.14-3.16,2.02-4.62,1.75-3.01,3.99-5.65,4.34-5.41.34.23-1.23,3.23-2.42,6.35-.64,1.57-1.12,3.06-1.19,4.11-.08,1.04.14,1.53.14,1.53,0,0,.02.56.55,1.21.5.67,1.82,1.33,3.34,1.53,1.51.21,3.27.11,4.59.29,1.33.15,2.17.55,2.12.74Z"/>
              </g>
              <g class="cls-15">
                <path class="cls-28" d="m150.54,33.02c-.31-.27,3-4.71,5.61-9.53,1.35-2.41,2.55-4.81,2.79-6.58.15-.89.11-1.58.04-2.07-.07-.48-.15-.74-.15-.74,0,0-.04-.27-.19-.71-.15-.44-.42-1.04-.95-1.56-.52-.53-1.39-1-2.53-1.29-1.13-.29-2.48-.46-3.8-.54-2.66-.16-5.35.16-7.34.6-1.99.43-3.31.88-3.4.68-.09-.17,1.08-1,3.06-1.81,1.97-.81,4.8-1.5,7.7-1.6,1.46-.04,2.88,0,4.3.23,1.41.23,2.83.78,3.85,1.66,1.03.87,1.56,1.88,1.85,2.56.29.69.38,1.11.38,1.11,0,0,.1.41.16,1.14.06.71.03,1.77-.26,2.93-.53,2.36-2.12,4.86-3.7,7.14-3.17,4.67-7.11,8.69-7.42,8.41Z"/>
              </g>
            </g>
          </g>
        </g>
      </g>
    </g>
  </g>
</svg>