<?xml version="1.0" encoding="UTF-8"?>
<svg xmlns="http://www.w3.org/2000/svg" xmlns:xlink="http://www.w3.org/1999/xlink" viewBox="0 0 68.24 68.24">
  <defs>
    <style>
      .cls-1 {
        fill: url(#radial-gradient);
      }

      .cls-1, .cls-2, .cls-3, .cls-4, .cls-5, .cls-6, .cls-7, .cls-8 {
        mix-blend-mode: screen;
      }

      .cls-2 {
        fill: url(#radial-gradient-11);
      }

      .cls-2, .cls-6, .cls-8 {
        opacity: .45;
      }

      .cls-3 {
        fill: url(#radial-gradient-8);
        opacity: .34;
      }

      .cls-9 {
        fill: url(#radial-gradient-5);
      }

      .cls-10 {
        fill: url(#radial-gradient-4);
      }

      .cls-11 {
        isolation: isolate;
      }

      .cls-12 {
        fill: url(#radial-gradient-6);
      }

      .cls-5 {
        fill: url(#radial-gradient-10);
      }

      .cls-6 {
        fill: url(#radial-gradient-9);
      }

      .cls-13 {
        fill: url(#radial-gradient-7);
        mix-blend-mode: multiply;
        opacity: .25;
      }

      .cls-14, .cls-7 {
        fill: url(#radial-gradient-2);
      }

      .cls-15 {
        fill: url(#radial-gradient-3);
      }

      .cls-8 {
        fill: url(#radial-gradient-12);
      }
    </style>
    <radialGradient id="radial-gradient" cx="34.29" cy="34.12" fx="34.29" fy="34.12" r="33.57" gradientTransform="translate(10.43 -7.91) rotate(15.59)" gradientUnits="userSpaceOnUse">
      <stop offset=".05" stop-color="#f3a400"/>
      <stop offset=".41" stop-color="#f2a301" stop-opacity=".99"/>
      <stop offset=".54" stop-color="#f29f06" stop-opacity=".96"/>
      <stop offset=".63" stop-color="#f2990f" stop-opacity=".92"/>
      <stop offset=".7" stop-color="#f1911c" stop-opacity=".85"/>
      <stop offset=".77" stop-color="#f1852d" stop-opacity=".76"/>
      <stop offset=".82" stop-color="#f07841" stop-opacity=".64"/>
      <stop offset=".87" stop-color="#ef675a" stop-opacity=".51"/>
      <stop offset=".92" stop-color="#ee5476" stop-opacity=".35"/>
      <stop offset=".96" stop-color="#ed3f95" stop-opacity=".19"/>
      <stop offset="1" stop-color="#ec29b8" stop-opacity="0"/>
    </radialGradient>
    <radialGradient id="radial-gradient-2" cx="194.16" cy="497.72" fx="194.16" fy="497.72" r="85.69" gradientTransform="translate(592.49 -30.79) rotate(104.07)" gradientUnits="userSpaceOnUse">
      <stop offset=".05" stop-color="#f3a400"/>
      <stop offset="1" stop-color="#ec29b8"/>
    </radialGradient>
    <radialGradient id="radial-gradient-3" cx="187.03" cy="505.8" fx="187.03" fy="505.8" r="45.06" gradientTransform="translate(559.37 -166.15) rotate(89.83)" gradientUnits="userSpaceOnUse">
      <stop offset="0" stop-color="#f07"/>
      <stop offset=".14" stop-color="#fa0279"/>
      <stop offset=".31" stop-color="#eb0a7f"/>
      <stop offset=".49" stop-color="#d3178a"/>
      <stop offset=".67" stop-color="#b22998"/>
      <stop offset=".87" stop-color="#883fab"/>
      <stop offset=".9" stop-color="#8144af"/>
    </radialGradient>
    <radialGradient id="radial-gradient-4" cx="187.03" cy="505.8" fx="187.03" fy="505.8" r="45.09" xlink:href="#radial-gradient-3"/>
    <radialGradient id="radial-gradient-5" cx="187.03" cy="505.8" fx="187.03" fy="505.8" r="45.06" xlink:href="#radial-gradient-3"/>
    <radialGradient id="radial-gradient-6" cx="187.03" cy="505.8" fx="187.03" fy="505.8" r="45.06" xlink:href="#radial-gradient-3"/>
    <radialGradient id="radial-gradient-7" cx="194.53" cy="504.62" fx="194.53" fy="504.62" r="77.72" gradientTransform="translate(559.37 -166.15) rotate(89.83)" xlink:href="#radial-gradient-2"/>
    <radialGradient id="radial-gradient-8" cx="195.39" cy="514.35" fx="195.39" fy="514.35" r="63.7" gradientTransform="translate(559.37 -166.15) rotate(89.83)" xlink:href="#radial-gradient-2"/>
    <radialGradient id="radial-gradient-9" cx="39.71" cy="31.91" fx="39.71" fy="31.91" r="25.38" gradientTransform="matrix(1,0,0,1,0,0)" xlink:href="#radial-gradient-2"/>
    <radialGradient id="radial-gradient-10" cx="192.48" cy="501.27" fx="192.48" fy="501.27" r="54.85" gradientTransform="translate(559.37 -166.15) rotate(89.83)" xlink:href="#radial-gradient-2"/>
    <radialGradient id="radial-gradient-11" cx="45.5" cy="17.68" fx="45.5" fy="17.68" r="5.5" gradientTransform="matrix(1,0,0,1,0,0)" xlink:href="#radial-gradient-2"/>
    <radialGradient id="radial-gradient-12" cx="54.19" cy="27.03" fx="54.19" fy="27.03" r="3.24" gradientTransform="matrix(1,0,0,1,0,0)" xlink:href="#radial-gradient-2"/>
  </defs>
  <g class="cls-11">
    <g id="Vrstva_1" data-name="Vrstva 1">
      <g class="cls-4">
        <g>
          <circle class="cls-1" cx="34.12" cy="34.12" r="34.12" transform="translate(-7.91 10.43) rotate(-15.59)"/>
          <circle class="cls-14" cx="34.12" cy="34.12" r="29.22" transform="translate(-7.35 9.44) rotate(-14.24)"/>
          <circle class="cls-7" cx="34.12" cy="34.12" r="29.22" transform="translate(-7.35 9.44) rotate(-14.24)"/>
          <g>
            <path class="cls-15" d="m22.93,46.52c.4.24.85.46,1.31.4.9-.12,1.32-1.2,1.33-2.11.02-2.16-1.17-4.13-2.47-5.85-1.3-1.72-2.78-3.37-3.52-5.39-.74-2.03-.51-4.6,1.18-5.93,1.78-1.39,4.4-.93,6.45-1.89.28-.13.55-.29.71-.55.39-.63-.05-1.42-.47-2.03-2.38-3.46-4.36-7.32-4.84-11.49-.17-1.49-.12-3.02.16-4.49-5.47,2.31-10.09,6.24-13.26,11.18.33.08.65.18.97.32,3.31,1.54,3.88,5.92,4.16,9.56.27,3.47.71,6.97,1.95,10.22,1.24,3.25,3.34,6.27,6.34,8.05Z"/>
            <path class="cls-10" d="m30.69,63.13c-.06-1.97-.2-3.9-1.26-5.52-1.75-2.69-5.43-3.44-8.62-3.01-.83.11-1.72.28-2.48-.07-.47-.21-.84-.6-1.17-.99-3.19-3.69-4.87-8.41-7.32-12.63-1.07-1.84-2.69-3.79-4.78-3.8,1.39,13.61,12.11,24.43,25.64,26.01Z"/>
            <path class="cls-9" d="m34.03,4.9c-.17,0-.34.01-.51.01-.36.48-.64,1-.83,1.57-.44,1.29-.46,2.77-1.33,3.82-.47.57-1.15.95-1.63,1.51-1.19,1.41-.8,3.66.37,5.09,1.16,1.43,2.9,2.25,4.56,3.06,1.66.8,3.38,1.69,4.44,3.2.88,1.25,1.22,2.86.92,4.36-.26,1.33-1,2.6-.83,3.94.23,1.75,2.05,2.96,3.81,3.01,1.76.06,3.43-.79,4.87-1.81.71-.5,1.4-1.05,2.22-1.35,2.21-.79,4.63.52,6.33,2.15,1.7,1.62,3.1,3.63,5.17,4.74.43.23.9.4,1.38.47.24-1.52.36-3.07.36-4.65-.05-16.14-13.17-29.18-29.31-29.13Z"/>
            <path class="cls-12" d="m56.1,46.11c-1.75.53-3.27,1.63-4.92,2.42-1.65.79-3.63,1.27-5.29.49-2.03-.95-2.84-3.34-3.78-5.38-.84-1.83-1.95-3.54-3.26-5.06-1.46-1.69-3.52-3.25-5.72-2.86-2.3.4-3.72,2.77-4.31,5.03-.37,1.42-.53,2.99.11,4.32,1.21,2.51,4.75,3.2,5.97,5.7.98,2.01.1,4.38-.07,6.61-.16,2.05.34,4.07,1.28,5.88,11-.74,20.33-7.56,24.66-17.13-1.51-.45-3.14-.49-4.66-.03Z"/>
          </g>
          <path class="cls-13" d="m56.36,53.01c-2.27.57-4.63.88-7.08.89-16.14.05-29.26-12.99-29.31-29.13-.02-7.3,2.64-13.98,7.05-19.11-12.71,3.2-22.1,14.72-22.06,28.42.05,16.14,13.17,29.18,29.31,29.13,8.84-.03,16.74-3.98,22.08-10.19Z"/>
          <path class="cls-3" d="m46.43,58.27c-2.8.99-5.81,1.53-8.95,1.54-15.02.05-27.23-12.09-27.27-27.11-.03-10.51,5.9-19.63,14.61-24.18-10.59,3.74-18.17,13.85-18.13,25.72.05,15.02,12.26,27.15,27.27,27.11,4.5-.01,8.74-1.13,12.47-3.08Z"/>
          <path class="cls-6" d="m31.45,6.72c16.14-.05,29.26,12.99,29.31,29.13.03,9.35-4.35,17.69-11.17,23.06,8.28-5.18,13.79-14.39,13.75-24.88-.05-16.14-13.17-29.18-29.31-29.13-6.78.02-13.02,2.36-17.97,6.25,4.46-2.79,9.73-4.41,15.38-4.43Z"/>
        </g>
        <path class="cls-5" d="m28.17,9.23c3.47-.88,8.72.47,11.25,1.16,5.95,1.63,11.3,5.02,15.02,9.98,9.73,12.97,2.71,27.96-1.61,31.95-4.32,3.99-9.01-.67-8.92-7.86.09-7.18.19-14.25-3.48-18.35s-12.9-3.72-14.85-9.19c-.65-1.81-1.27-4.43,0-6.14.59-.79,1.5-1.28,2.58-1.56Z"/>
        <g>
          <path class="cls-2" d="m50.6,22.15c-1.39,1.59-4.8.87-7.61-1.59-2.82-2.46-3.97-5.75-2.59-7.33,1.39-1.59,4.8-.87,7.61,1.59,2.82,2.46,3.97,5.75,2.59,7.33Z"/>
          <path class="cls-8" d="m56.06,30.55c-1.09.58-2.82-.52-3.85-2.46-1.03-1.94-.99-3.99.11-4.57,1.09-.58,2.82.52,3.85,2.46s.99,3.99-.11,4.57Z"/>
        </g>
      </g>
    </g>
  </g>
</svg>