<?xml version="1.0" encoding="UTF-8"?>
<svg xmlns="http://www.w3.org/2000/svg" xmlns:xlink="http://www.w3.org/1999/xlink" viewBox="0 0 171.2 171.2">
  <defs>
    <style>
      .cls-1 {
        fill: url(#radial-gradient-3);
      }

      .cls-1, .cls-2, .cls-3, .cls-4, .cls-5, .cls-6, .cls-7, .cls-8, .cls-9 {
        mix-blend-mode: screen;
      }

      .cls-2 {
        fill: url(#radial-gradient-11);
      }

      .cls-2, .cls-6, .cls-8 {
        opacity: .45;
      }

      .cls-3 {
        fill: url(#radial-gradient-8);
        opacity: .34;
      }

      .cls-10 {
        isolation: isolate;
      }

      .cls-4 {
        fill: url(#radial-gradient-5);
      }

      .cls-11 {
        fill: url(#radial-gradient);
      }

      .cls-5 {
        fill: url(#radial-gradient-10);
      }

      .cls-6 {
        fill: url(#radial-gradient-9);
      }

      .cls-12 {
        fill: url(#radial-gradient-7);
        mix-blend-mode: multiply;
        opacity: .25;
      }

      .cls-13 {
        fill: url(#radial-gradient-2);
      }

      .cls-7 {
        fill: url(#radial-gradient-4);
      }

      .cls-8 {
        fill: url(#radial-gradient-12);
      }

      .cls-9 {
        fill: url(#radial-gradient-6);
      }
    </style>
    <radialGradient id="radial-gradient" cx="85.6" cy="84.88" fx="85.6" fy="84.88" r="84.97" gradientTransform="translate(85.6 -35.46) rotate(45)" gradientUnits="userSpaceOnUse">
      <stop offset="0" stop-color="#461980"/>
      <stop offset=".43" stop-color="#451b81" stop-opacity=".99"/>
      <stop offset=".58" stop-color="#432386" stop-opacity=".93"/>
      <stop offset=".69" stop-color="#3e318e" stop-opacity=".84"/>
      <stop offset=".78" stop-color="#39459a" stop-opacity=".71"/>
      <stop offset=".86" stop-color="#315fa9" stop-opacity=".54"/>
      <stop offset=".92" stop-color="#287fbc" stop-opacity=".32"/>
      <stop offset=".98" stop-color="#1da4d2" stop-opacity=".08"/>
      <stop offset="1" stop-color="#1ab0da" stop-opacity="0"/>
    </radialGradient>
    <radialGradient id="radial-gradient-2" cx="-81.61" cy="-648.75" fx="-81.61" fy="-648.75" r="194.92" gradientTransform="translate(549.51 448.69) rotate(-45)" gradientUnits="userSpaceOnUse">
      <stop offset=".06" stop-color="#1ab0da"/>
      <stop offset="1" stop-color="#461980"/>
    </radialGradient>
    <radialGradient id="radial-gradient-3" cx="65.2" cy="19.54" fx="65.2" fy="19.54" r="446.84" gradientUnits="userSpaceOnUse">
      <stop offset=".05" stop-color="#f3a400"/>
      <stop offset="1" stop-color="#ec29b8"/>
    </radialGradient>
    <radialGradient id="radial-gradient-4" cx="65.2" cy="19.54" fx="65.2" fy="19.54" r="446.84" xlink:href="#radial-gradient-3"/>
    <radialGradient id="radial-gradient-5" cx="65.2" cy="19.54" fx="65.2" fy="19.54" r="446.84" xlink:href="#radial-gradient-3"/>
    <radialGradient id="radial-gradient-6" cx="65.2" cy="19.54" fx="65.2" fy="19.54" r="446.84" xlink:href="#radial-gradient-3"/>
    <radialGradient id="radial-gradient-7" cx="-79.97" cy="-632.62" fx="-79.97" fy="-632.62" r="176.8" gradientTransform="translate(599.96 372.79) rotate(-53.87)" xlink:href="#radial-gradient-2"/>
    <radialGradient id="radial-gradient-8" cx="-75.93" cy="-610.83" fx="-75.93" fy="-610.83" r="144.91" gradientTransform="translate(599.96 372.79) rotate(-53.87)" xlink:href="#radial-gradient-2"/>
    <radialGradient id="radial-gradient-9" cx="1419.71" cy="-85.09" fx="1419.71" fy="-85.09" r="57.73" gradientTransform="translate(1266.9 854.04) rotate(-143.7)" xlink:href="#radial-gradient-2"/>
    <radialGradient id="radial-gradient-10" cx="-85.45" cy="-640.68" fx="-85.45" fy="-640.68" r="124.78" gradientTransform="translate(599.96 372.79) rotate(-53.87)" xlink:href="#radial-gradient-2"/>
    <radialGradient id="radial-gradient-11" cx="1432.9" cy="-117.44" fx="1432.9" fy="-117.44" r="12.51" gradientTransform="translate(1266.9 854.04) rotate(-143.7)" xlink:href="#radial-gradient-2"/>
    <radialGradient id="radial-gradient-12" cx="1452.65" cy="-96.18" fx="1452.65" fy="-96.18" r="7.36" gradientTransform="translate(1266.9 854.04) rotate(-143.7)" xlink:href="#radial-gradient-2"/>
  </defs>
  <g class="cls-10">
    <g id="Vrstva_1" data-name="Vrstva 1">
      <g>
        <g>
          <circle class="cls-11" cx="85.6" cy="85.6" r="85.59" transform="translate(-35.46 85.6) rotate(-45)"/>
          <circle class="cls-13" cx="85.6" cy="85.6" r="66.47" transform="translate(-12.18 14.23) rotate(-8.87)"/>
          <g>
            <path class="cls-1" d="m122.81,77.93c-.41-.97-.94-1.98-1.86-2.49-1.81-.99-4.03.43-5.27,2.09-2.94,3.92-3.42,9.14-3.35,14.04s.56,9.92-.81,14.62c-1.38,4.71-5.25,9.13-10.15,9.28-5.14.16-9.32-4.22-14.37-5.23-.68-.14-1.4-.21-2.04.05-1.56.62-1.82,2.68-1.87,4.35-.3,9.55-1.86,19.29-6.6,27.58-1.69,2.95-3.85,5.69-6.34,8.03,13.14,3.14,26.9,2.15,39.37-2.64-.5-.59-.96-1.21-1.34-1.89-4-7.29.86-16.07,5.25-23.14,4.17-6.73,8.07-13.73,10.19-21.36,2.11-7.63,2.32-16-.78-23.29Z"/>
            <path class="cls-7" d="m130.95,37.03c-2.55,3.69-4.88,7.43-5.13,11.82-.41,7.3,5.33,13.63,11.75,17.12,1.68.91,3.53,1.8,4.47,3.47.57,1.02.72,2.23.82,3.4.87,11.06-2.41,21.98-3.58,33.01-.51,4.83-.17,10.58,3.65,13.4,15.78-26.81,10.71-61.09-11.97-82.21Z"/>
            <path class="cls-4" d="m46.41,139.29c.31.23.63.43.95.65,1.29-.4,2.53-.98,3.64-1.76,2.53-1.77,4.58-4.45,7.58-5.21,1.64-.41,3.38-.19,5.02-.58,4.08-.98,6.39-5.63,6.18-9.83-.2-4.19-2.28-8.04-4.24-11.75-1.96-3.71-3.91-7.65-3.83-11.85.07-3.47,1.62-6.89,4.18-9.24,2.27-2.08,5.34-3.41,6.82-6.11,1.93-3.51.23-8.18-2.93-10.66-3.15-2.47-7.35-3.17-11.36-3.25-1.98-.04-3.99.04-5.89-.52-5.12-1.52-7.78-7.19-8.71-12.45-.92-5.26-.78-10.83-3.09-15.65-.48-1-1.11-1.96-1.91-2.73-2.48,2.46-4.8,5.14-6.92,8.05-21.64,29.65-15.15,71.23,14.5,92.87Z"/>
            <path class="cls-9" d="m61.46,34.03c3.93,1.39,8.19,1.42,12.29,2.19,4.1.77,8.37,2.57,10.37,6.22,2.45,4.48.71,9.95-.3,14.95-.91,4.49-1.19,9.11-.83,13.68.4,5.06,2.07,10.7,6.62,12.95,4.76,2.36,10.55-.07,14.68-3.42,2.6-2.11,5-4.78,5.61-8.07,1.15-6.23-4.41-12.25-3.27-18.49.92-5.01,5.71-8.16,9.04-12.02,3.05-3.54,4.86-7.91,5.57-12.52-21.17-13.47-47.45-13.52-68.26-1.81,2.17,2.86,5.1,5.14,8.49,6.33Z"/>
          </g>
          <path class="cls-12" d="m71.09,20.61c4.92,2,9.69,4.62,14.17,7.9,29.65,21.64,36.14,63.22,14.5,92.87-9.79,13.41-23.67,22.07-38.67,25.54,27.61,11.24,60.33,2.77,78.7-22.4,21.64-29.65,15.15-71.23-14.5-92.87-16.24-11.85-36.05-15.25-54.21-11.04Z"/>
          <path class="cls-3" d="m97.32,22.48c6.47,1.96,12.72,5.02,18.49,9.23,27.59,20.14,33.63,58.83,13.49,86.42-14.09,19.3-37.26,28.04-59.35,24.66,24.45,7.4,51.95-.93,67.87-22.73,20.14-27.59,14.1-66.28-13.49-86.42-8.27-6.04-17.54-9.7-27.01-11.15Z"/>
          <path class="cls-6" d="m53.61,139.43c-29.65-21.64-36.14-63.22-14.5-92.87,12.54-17.18,31.79-26.57,51.52-27.23-22.16-1.66-44.65,7.82-58.72,27.09-21.64,29.65-15.15,71.23,14.5,92.87,12.47,9.1,27.04,13.21,41.35,12.73-11.94-.89-23.78-5.01-34.16-12.59Z"/>
        </g>
        <path class="cls-5" d="m63,139.24c-7.54-3.05-15.36-12.6-19.06-17.27-8.72-11-13.96-24.43-14.1-38.54-.37-36.88,32.69-54.9,45.98-56.4,13.29-1.49,15.61,13.37,5.77,26.41-9.84,13.05-19.53,25.88-18.34,38.32,1.2,12.44,18.63,24.19,14.85,36.85-1.25,4.19-3.63,9.83-8.28,11.24-2.16.65-4.48.34-6.83-.61Z"/>
        <g>
          <path class="cls-2" d="m39.26,85.36c4.68-1.04,9.97,4.86,11.81,13.17,1.84,8.31-.45,15.89-5.14,16.93s-9.97-4.86-11.81-13.17c-1.84-8.31.45-15.89,5.14-16.93Z"/>
          <path class="cls-8" d="m40.57,62.61c2.79.41,4.47,4.75,3.75,9.71-.72,4.96-3.57,8.64-6.36,8.24-2.79-.41-4.47-4.75-3.75-9.71.72-4.95,3.57-8.64,6.36-8.24Z"/>
        </g>
      </g>
    </g>
  </g>
</svg>