<?xml version="1.0" encoding="UTF-8"?>
<svg xmlns="http://www.w3.org/2000/svg" xmlns:xlink="http://www.w3.org/1999/xlink" viewBox="0 0 1919.64 643.35">
  <defs>
    <style>
      .cls-1 {
        fill: url(#radial-gradient-3);
      }

      .cls-1, .cls-2, .cls-3, .cls-4, .cls-5 {
        mix-blend-mode: screen;
      }

      .cls-2 {
        fill: url(#radial-gradient);
      }

      .cls-6 {
        fill: url(#radial-gradient-19);
      }

      .cls-6, .cls-7, .cls-8, .cls-9, .cls-10, .cls-11, .cls-12, .cls-13, .cls-14, .cls-15, .cls-16, .cls-17, .cls-18, .cls-19, .cls-20, .cls-21, .cls-22 {
        opacity: .25;
      }

      .cls-7 {
        fill: url(#radial-gradient-21);
      }

      .cls-8 {
        fill: url(#radial-gradient-22);
      }

      .cls-23 {
        isolation: isolate;
      }

      .cls-9 {
        fill: url(#radial-gradient-15);
      }

      .cls-10 {
        fill: url(#radial-gradient-26);
      }

      .cls-24 {
        fill: url(#radial-gradient-11);
      }

      .cls-24, .cls-25, .cls-26, .cls-27, .cls-28, .cls-29, .cls-30 {
        opacity: .5;
      }

      .cls-25 {
        fill: url(#radial-gradient-9);
      }

      .cls-26 {
        fill: url(#radial-gradient-10);
      }

      .cls-11 {
        fill: url(#radial-gradient-13);
      }

      .cls-12 {
        fill: url(#radial-gradient-17);
      }

      .cls-13 {
        fill: url(#radial-gradient-16);
      }

      .cls-14 {
        fill: url(#radial-gradient-24);
      }

      .cls-15 {
        fill: url(#radial-gradient-27);
      }

      .cls-27 {
        fill: url(#radial-gradient-12);
      }

      .cls-16 {
        fill: url(#radial-gradient-29);
      }

      .cls-3 {
        fill: url(#radial-gradient-2);
      }

      .cls-4 {
        fill: url(#radial-gradient-4);
      }

      .cls-28 {
        fill: url(#radial-gradient-7);
      }

      .cls-17 {
        fill: url(#radial-gradient-25);
      }

      .cls-18 {
        fill: url(#radial-gradient-20);
      }

      .cls-5 {
        fill: url(#radial-gradient-6);
      }

      .cls-19 {
        fill: url(#radial-gradient-28);
      }

      .cls-20 {
        fill: url(#radial-gradient-18);
      }

      .cls-21 {
        fill: url(#radial-gradient-14);
      }

      .cls-22 {
        fill: url(#radial-gradient-23);
      }

      .cls-29 {
        fill: url(#radial-gradient-8);
      }

      .cls-30 {
        fill: url(#radial-gradient-5);
      }
    </style>
    <radialGradient id="radial-gradient" cx="986.23" cy="71.46" fx="986.23" fy="71.46" r="882.33" gradientTransform="translate(-161.32 -94.92) scale(1.12 1.26)" gradientUnits="userSpaceOnUse">
      <stop offset="0" stop-color="#52239f" stop-opacity="0"/>
      <stop offset=".96" stop-color="#000228"/>
    </radialGradient>
    <radialGradient id="radial-gradient-2" cx="987.64" cy="105.05" fx="987.64" fy="105.05" r="768.31" xlink:href="#radial-gradient"/>
    <radialGradient id="radial-gradient-3" cx="968.04" cy="58.73" fx="968.04" fy="58.73" r="683.11" gradientTransform="translate(-161.32 -66.74) scale(1.12 1.18)" gradientUnits="userSpaceOnUse">
      <stop offset="0" stop-color="#52239f"/>
      <stop offset=".96" stop-color="#000228"/>
    </radialGradient>
    <radialGradient id="radial-gradient-4" cx="949.44" cy="53.98" fx="949.44" fy="53.98" r="494.8" gradientTransform="matrix(1,0,0,1,0,0)" xlink:href="#radial-gradient-3"/>
    <radialGradient id="radial-gradient-5" cx="1009.43" cy="147.67" fx="1009.43" fy="147.67" r="379.51" gradientTransform="translate(-108.58 -265.82) rotate(9.11) scale(1.13 1.21) skewX(1.36)" xlink:href="#radial-gradient-3"/>
    <radialGradient id="radial-gradient-6" cx="1045.56" cy="248.04" fx="1045.56" fy="248.04" r="284.58" gradientTransform="translate(-161.32 -79.42) scale(1.12 1.21)" xlink:href="#radial-gradient-3"/>
    <radialGradient id="radial-gradient-7" cx="1142.3" cy="65.71" fx="1142.3" fy="65.71" r="351.57" gradientTransform="translate(-161.32 -79.42) scale(1.12 1.21)" xlink:href="#radial-gradient-3"/>
    <radialGradient id="radial-gradient-8" cx="1142.3" cy="65.72" fx="1142.3" fy="65.72" r="351.56" gradientTransform="translate(-161.32 -79.42) scale(1.12 1.21)" xlink:href="#radial-gradient-3"/>
    <radialGradient id="radial-gradient-9" cx="1142.31" cy="65.72" fx="1142.31" fy="65.72" r="351.56" gradientTransform="translate(-161.32 -79.42) scale(1.12 1.21)" xlink:href="#radial-gradient-3"/>
    <radialGradient id="radial-gradient-10" cx="1142.3" cy="65.72" fx="1142.3" fy="65.72" r="351.56" gradientTransform="translate(-161.32 -79.42) scale(1.12 1.21)" xlink:href="#radial-gradient-3"/>
    <radialGradient id="radial-gradient-11" cx="1142.3" cy="65.72" fx="1142.3" fy="65.72" r="351.56" gradientTransform="translate(-161.32 -79.42) scale(1.12 1.21)" xlink:href="#radial-gradient-3"/>
    <radialGradient id="radial-gradient-12" cx="1142.31" cy="65.72" fx="1142.31" fy="65.72" r="351.56" gradientTransform="translate(-161.32 -79.42) scale(1.12 1.21)" xlink:href="#radial-gradient-3"/>
    <radialGradient id="radial-gradient-13" cx="679.32" cy="235.77" fx="679.32" fy="235.77" r="107.27" gradientTransform="translate(-161.32 -79.42) scale(1.12 1.21)" xlink:href="#radial-gradient-3"/>
    <radialGradient id="radial-gradient-14" cx="1148.81" cy="64.28" fx="1148.81" fy="64.28" r="107.26" gradientTransform="translate(53.84 -585.81) rotate(27.02) scale(1.14 1.2) skewX(3.51)" xlink:href="#radial-gradient-3"/>
    <radialGradient id="radial-gradient-15" cx="1383.31" cy="-88.46" fx="1383.31" fy="-88.46" r="107.27" gradientTransform="translate(445.41 -978.81) rotate(50.96) scale(1.18 1.16) skewX(4.24)" xlink:href="#radial-gradient-3"/>
    <radialGradient id="radial-gradient-16" cx="1200.04" cy="84.76" fx="1200.04" fy="84.76" r="45.53" gradientTransform="translate(53.84 -585.81) rotate(27.02) scale(1.14 1.2) skewX(3.51)" xlink:href="#radial-gradient-3"/>
    <radialGradient id="radial-gradient-17" cx="1284.51" cy="129.72" fx="1284.51" fy="129.72" r="45.53" gradientTransform="translate(53.84 -585.81) rotate(27.02) scale(1.14 1.2) skewX(3.51)" xlink:href="#radial-gradient-3"/>
    <radialGradient id="radial-gradient-18" cx="1312.97" cy="59.95" fx="1312.97" fy="59.95" r="45.53" gradientTransform="translate(53.84 -585.81) rotate(27.02) scale(1.14 1.2) skewX(3.51)" xlink:href="#radial-gradient-3"/>
    <radialGradient id="radial-gradient-19" cx="1360.8" cy="45.32" fx="1360.8" fy="45.32" r="45.53" gradientTransform="translate(265.54 -828.75) rotate(41.33) scale(1.16 1.18) skewX(4.3)" xlink:href="#radial-gradient-3"/>
    <radialGradient id="radial-gradient-20" cx="1327.12" cy="16.09" fx="1327.12" fy="16.09" r="73.07" gradientTransform="translate(154.79 -719.87) rotate(34.6) scale(1.15 1.19) skewX(4.06)" xlink:href="#radial-gradient-3"/>
    <radialGradient id="radial-gradient-21" cx="1202.97" cy="146.26" fx="1202.97" fy="146.26" r="73.07" gradientTransform="translate(1838.24 -1015.65) rotate(108.24) scale(1.14 1.19) skewX(3.63)" xlink:href="#radial-gradient-3"/>
    <radialGradient id="radial-gradient-22" cx="819.4" cy="194.08" fx="819.4" fy="194.08" r="65.82" gradientTransform="translate(-145.36 -139.15) rotate(3.31) scale(1.12 1.21) skewX(.5)" xlink:href="#radial-gradient-3"/>
    <radialGradient id="radial-gradient-23" cx="814.1" cy="255.07" fx="814.1" fy="255.07" r="65.82" gradientTransform="translate(-145.36 -139.15) rotate(3.31) scale(1.12 1.21) skewX(.5)" xlink:href="#radial-gradient-3"/>
    <radialGradient id="radial-gradient-24" cx="838.01" cy="251.24" fx="838.01" fy="251.24" r="41" gradientTransform="translate(-145.36 -139.15) rotate(3.31) scale(1.12 1.21) skewX(.5)" xlink:href="#radial-gradient-3"/>
    <radialGradient id="radial-gradient-25" cx="782.83" cy="174.18" fx="782.83" fy="174.18" r="41" gradientTransform="translate(-145.36 -139.15) rotate(3.31) scale(1.12 1.21) skewX(.5)" xlink:href="#radial-gradient-3"/>
    <radialGradient id="radial-gradient-26" cx="721.75" cy="257.48" fx="721.75" fy="257.48" r="41" gradientTransform="translate(-145.36 -139.15) rotate(3.31) scale(1.12 1.21) skewX(.5)" xlink:href="#radial-gradient-3"/>
    <radialGradient id="radial-gradient-27" cx="879.46" cy="161.36" fx="879.46" fy="161.36" r="107.27" gradientTransform="translate(-161.32 -79.42) scale(1.12 1.21)" xlink:href="#radial-gradient-3"/>
    <radialGradient id="radial-gradient-28" cx="917.62" cy="172.45" fx="917.62" fy="172.45" r="41" gradientTransform="translate(-145.36 -139.15) rotate(3.31) scale(1.12 1.21) skewX(.5)" xlink:href="#radial-gradient-3"/>
    <radialGradient id="radial-gradient-29" cx="721.92" cy="193.02" fx="721.92" fy="193.02" r="41" gradientTransform="translate(-145.36 -139.15) rotate(3.31) scale(1.12 1.21) skewX(.5)" xlink:href="#radial-gradient-3"/>
  </defs>
  <g class="cls-23">
    <g id="Vrstva_1" data-name="Vrstva 1">
      <g>
        <path class="cls-2" d="m1919.64,415.3C1737.62,167.82,1384.64,0,979,0,542.63,0,167.21,194.21,0,472.86v170.49h1919.64v-228.05Z"/>
        <path class="cls-3" d="m1795.61,403.2C1637.11,187.7,1329.74,41.57,976.52,41.57c-379.98,0-706.88,169.11-852.49,411.76v148.46h1671.58v-198.58Z"/>
        <path class="cls-1" d="m1702.92,407.21c-140.92-179.56-414.2-301.32-728.26-301.32-337.84,0-628.49,140.91-757.95,343.09v123.7h1486.21v-165.46Z"/>
        <path class="cls-4" d="m455.76,255.68c-6.98,75.05,210.84,84.43,459.38,61.5,248.54-22.93,423.07,62.54,537.57-1.04,45.34-25.18,43.16-60.49,19.3-94.73-138.59-72.54-310.77-115.51-497.34-115.51s-371.15,46.15-512.2,123.5c-3.5,8.51-5.87,17.31-6.71,26.29Z"/>
        <g>
          <path class="cls-30" d="m1310.01,217.33c-2.28,16.53-35.99,24.82-75.3,18.51-39.31-6.3-69.33-24.82-67.05-41.35,2.28-16.53,35.99-24.82,75.3-18.51,39.31,6.3,69.33,24.82,67.05,41.35Zm-725.66-22.33c-37.11,15.33-62.71,40.41-57.16,56.02,5.54,15.61,40.12,15.83,77.23.5,37.11-15.33,62.71-40.41,57.16-56.02-5.54-15.61-40.12-15.83-77.23-.5Zm125.55,26.99c-26.73,10.31-45.39,27.78-41.66,39.02,3.72,11.24,28.42,12,55.15,1.69,26.73-10.31,45.39-27.78,41.66-39.02-3.72-11.24-28.42-12-55.15-1.69Zm60.06-81.94c-20.21,6.86-34.58,19.31-32.11,27.81,2.48,8.5,20.87,9.83,41.08,2.97,20.21-6.86,34.58-19.31,32.11-27.81-2.48-8.5-20.87-9.83-41.08-2.97Zm648.71,97.22c-19.37-9.26-37.79-10.16-41.13-2.01-3.35,8.15,9.65,22.25,29.02,31.51,19.37,9.26,37.79,10.16,41.13,2.01,3.35-8.15-9.65-22.25-29.02-31.51Zm-92.07,34.99c-23.91-2.98-44.17,2.76-45.24,12.81s17.43,20.62,41.34,23.6c23.91,2.98,44.17-2.76,45.24-12.81,1.08-10.05-17.43-20.62-41.34-23.6Z"/>
          <path class="cls-5" d="m615.82,250.39c-16.99,7.02-33.43,10.77-46.81,11.28,10.86-1.65,22.99-5.03,35.41-10.16,37.11-15.33,62.71-40.41,57.16-56.02-3-8.46-14.56-12.39-30.42-11.78,21.59-3.29,38.13.28,41.82,10.66,5.54,15.61-20.05,40.69-57.16,56.02Zm127.44-35.63c11.45-.21,19.76,2.78,21.79,8.92,3.72,11.24-14.93,28.71-41.66,39.02-7.64,2.95-15.09,4.96-21.96,6.11,9.53-.17,21.22-2.55,33.36-7.23,26.73-10.31,45.39-27.78,41.66-39.02-2.66-8.03-16.04-10.68-33.19-7.8Zm499.71-38.78c39.31,6.3,69.33,24.82,67.05,41.35-1.34,9.74-13.61,16.62-31.49,19.33,23.93-1.2,41.28-8.76,42.89-20.45,2.28-16.53-27.74-35.04-67.05-41.35-16.14-2.59-31.34-2.71-43.81-.82,9.89-.49,20.91.09,32.41,1.94Zm187.11,60.17c-14.77-7.06-28.96-9.24-36.36-6.28,7.17.62,15.95,3.09,24.96,7.4,19.37,9.26,32.36,23.36,29.02,31.51-.8,1.94-2.46,3.35-4.77,4.27,8.26.72,14.38-1.03,16.17-5.39,3.35-8.15-9.65-22.25-29.02-31.51Zm-92.07,34.99c-9.65-1.2-18.68-.97-26.12.38,4.64-.12,9.59.1,14.72.74,23.91,2.98,42.42,13.55,41.34,23.6-.64,6-8.13,10.44-19.13,12.43,16.98-.44,29.68-5.65,30.53-13.55,1.08-10.05-17.43-20.62-41.34-23.6Zm-544.1-135.47c9.14,0,15.73,2.5,17.14,7.35,2.48,8.5-11.89,20.95-32.11,27.81-4.31,1.46-8.53,2.53-12.54,3.26,6.9,0,15.25-1.43,23.94-4.38,20.21-6.86,34.59-19.31,32.11-27.81-1.95-6.68-13.76-8.91-28.54-6.23Z"/>
          <g>
            <path class="cls-28" d="m1359.4,305.15c-7.4-3.96-17.48-7.08-28.81-8.49-14.91-1.86-28.39-.33-36.7,3.53,7.4,3.96,17.48,7.08,28.81,8.49,14.91,1.86,28.39.33,36.7-3.53Z"/>
            <path class="cls-29" d="m1306.26,224.97c-11.16-10.81-33.17-20.4-59.31-24.6-32.66-5.24-61.44-.4-71.55,10.87,11.16,10.81,33.17,20.4,59.31,24.6,32.66,5.24,61.44.4,71.55-10.87Z"/>
            <path class="cls-25" d="m1387.94,254.85c4.95,4.28,11.33,8.44,18.61,11.92,13.74,6.57,26.98,8.9,34.72,6.81-4.95-4.28-11.33-8.44-18.61-11.92-13.74-6.57-26.98-8.9-34.72-6.81Z"/>
            <path class="cls-26" d="m534.36,258.84c13.12,7.17,40.79,4.76,70.06-7.33,25.68-10.61,45.83-25.88,53.98-39.45-13.12-7.17-40.79-4.76-70.06,7.33-25.68,10.61-45.83,25.88-53.98,39.45Z"/>
            <path class="cls-24" d="m773.95,164.44c-8.35,2.83-15.68,6.63-21.26,10.7,7.3.36,16.55-1.02,26.25-4.31,8.35-2.83,15.68-6.63,21.26-10.7-7.3-.36-16.55,1.02-26.25,4.31Z"/>
            <path class="cls-27" d="m678.5,268.76c10.42,2.71,27.18.77,44.89-6.06,15.4-5.94,28.08-14.25,35.39-22.38-10.42-2.71-27.18-.77-44.89,6.06-15.4,5.94-28.08,14.25-35.39,22.38Z"/>
          </g>
          <path class="cls-11" d="m639.74,268.75c1.81,6.21-8.86,15.37-23.84,20.45-14.98,5.08-28.59,4.16-30.4-2.06s8.86-15.37,23.84-20.45c14.98-5.08,28.59-4.16,30.4,2.06Z"/>
          <path class="cls-21" d="m1199.85,153.62c-.83,6.45-14.1,9.81-29.65,7.49-15.55-2.31-27.49-9.42-26.66-15.88.83-6.45,14.1-9.81,29.65-7.49,15.55,2.31,27.49,9.42,26.66,15.88Z"/>
          <path class="cls-9" d="m1525.6,284.55c-3.14,5.56-16.56,2.92-29.96-5.89-13.4-8.82-21.72-20.47-18.58-26.03,3.14-5.56,16.56-2.92,29.96,5.89,13.4,8.82,21.72,20.47,18.58,26.03Z"/>
          <path class="cls-13" d="m1236.89,160.39c-.35,2.74-5.99,4.16-12.59,3.18-6.6-.98-11.67-4-11.32-6.74.35-2.74,5.99-4.16,12.59-3.18,6.6.98,11.67,4,11.32,6.74Z"/>
          <path class="cls-12" d="m1301.15,253.48c-.35,2.74-5.99,4.16-12.59,3.18-6.6-.98-11.67-4-11.32-6.74.35-2.74,5.99-4.16,12.59-3.18,6.6.98,11.67,4,11.32,6.74Z"/>
          <path class="cls-20" d="m1363.62,191.74c-.35,2.74-5.99,4.16-12.59,3.18-6.6-.98-11.67-4-11.32-6.74.35-2.74,5.99-4.16,12.59-3.18,6.6.98,11.67,4,11.32,6.74Z"/>
          <path class="cls-6" d="m1416.2,288.01c-.95,2.57-6.74,2.49-12.93-.17-6.19-2.66-10.44-6.9-9.49-9.47.95-2.57,6.74-2.49,12.93.17,6.19,2.66,10.44,6.9,9.49,9.47Z"/>
          <path class="cls-18" d="m1402.43,214.14c-1.08,4.28-10.31,5.31-20.64,2.3-10.32-3.01-17.82-8.93-16.74-13.21,1.07-4.28,10.31-5.31,20.64-2.3,10.32,3.01,17.82,8.93,16.74,13.21Z"/>
          <ellipse class="cls-7" cx="1190.34" cy="239.71" rx="8.02" ry="19.4" transform="translate(745.39 1369.49) rotate(-79.89)"/>
          <path class="cls-8" d="m783.9,188.61c.92,3.87-5.9,9.1-15.23,11.68-9.33,2.58-17.64,1.53-18.56-2.34-.92-3.87,5.9-9.1,15.23-11.68,9.33-2.58,17.64-1.53,18.56,2.34Z"/>
          <path class="cls-22" d="m774.28,262.14c.92,3.87-5.9,9.1-15.23,11.68-9.33,2.58-17.64,1.53-18.56-2.34-.92-3.87,5.9-9.1,15.23-11.68,9.33-2.58,17.64-1.53,18.56,2.34Z"/>
          <path class="cls-14" d="m793.47,244.19c.57,2.41-3.67,5.67-9.49,7.28-5.81,1.61-10.99.95-11.56-1.46-.57-2.41,3.67-5.67,9.49-7.28,5.81-1.61,10.99-.95,11.56,1.46Z"/>
          <path class="cls-17" d="m736.14,147.27c.57,2.41-3.67,5.67-9.49,7.28-5.81,1.61-10.99.95-11.56-1.46-.57-2.41,3.67-5.67,9.49-7.28,5.81-1.61,10.99-.95,11.56,1.46Z"/>
          <path class="cls-10" d="m662.56,244.19c.57,2.41-3.67,5.67-9.49,7.28-5.81,1.61-10.99.95-11.56-1.46-.57-2.41,3.67-5.67,9.49-7.28,5.81-1.61,10.99-.95,11.56,1.46Z"/>
          <path class="cls-15" d="m864.78,178.49c1.81,6.21-8.86,15.37-23.84,20.45-14.98,5.08-28.59,4.16-30.4-2.06-1.81-6.21,8.86-15.37,23.84-20.45,14.98-5.08,28.59-4.16,30.4,2.06Z"/>
          <path class="cls-19" d="m887.6,153.93c.57,2.41-3.67,5.67-9.49,7.28-5.81,1.61-10.99.95-11.56-1.46-.57-2.41,3.67-5.67,9.49-7.28s10.99-.95,11.56,1.46Z"/>
          <path class="cls-16" d="m666.62,166.12c.57,2.41-3.67,5.67-9.49,7.28-5.81,1.61-10.99.95-11.56-1.46-.57-2.41,3.67-5.67,9.49-7.28,5.81-1.61,10.99-.95,11.56,1.46Z"/>
        </g>
      </g>
    </g>
  </g>
</svg>