<?xml version="1.0" encoding="UTF-8"?>
<svg xmlns="http://www.w3.org/2000/svg" xmlns:xlink="http://www.w3.org/1999/xlink" viewBox="0 0 146.74 93.46">
  <defs>
    <style>
      .cls-1 {
        fill: url(#radial-gradient-10);
      }

      .cls-1, .cls-2, .cls-3, .cls-4, .cls-5, .cls-6, .cls-7, .cls-8, .cls-9, .cls-10, .cls-11, .cls-12, .cls-13, .cls-14, .cls-15, .cls-16, .cls-17, .cls-18, .cls-19, .cls-20, .cls-21, .cls-22 {
        mix-blend-mode: multiply;
      }

      .cls-1, .cls-2, .cls-3, .cls-4, .cls-5, .cls-6, .cls-7, .cls-8, .cls-9, .cls-10, .cls-11, .cls-12, .cls-14, .cls-16, .cls-17, .cls-18, .cls-19, .cls-20, .cls-21, .cls-22 {
        opacity: .5;
      }

      .cls-2 {
        fill: url(#radial-gradient-21);
      }

      .cls-3 {
        fill: url(#radial-gradient-14);
      }

      .cls-4 {
        fill: url(#radial-gradient-17);
      }

      .cls-5 {
        fill: url(#radial-gradient-19);
      }

      .cls-6 {
        fill: url(#radial-gradient-4);
      }

      .cls-23 {
        isolation: isolate;
      }

      .cls-24 {
        fill: url(#radial-gradient-22);
        mix-blend-mode: color;
      }

      .cls-7 {
        fill: url(#radial-gradient-5);
      }

      .cls-8 {
        fill: url(#radial-gradient-8);
      }

      .cls-9 {
        fill: url(#radial-gradient-20);
      }

      .cls-10 {
        fill: url(#radial-gradient-9);
      }

      .cls-11 {
        fill: url(#radial-gradient-3);
      }

      .cls-25, .cls-13, .cls-26 {
        fill: #f3a400;
      }

      .cls-25, .cls-27, .cls-28 {
        mix-blend-mode: screen;
      }

      .cls-25, .cls-28 {
        opacity: .45;
      }

      .cls-12 {
        fill: url(#radial-gradient-15);
      }

      .cls-13, .cls-15 {
        opacity: .54;
      }

      .cls-29 {
        fill: url(#radial-gradient);
      }

      .cls-14 {
        fill: url(#radial-gradient-13);
      }

      .cls-16 {
        fill: url(#radial-gradient-18);
      }

      .cls-17 {
        fill: url(#radial-gradient-7);
      }

      .cls-18 {
        fill: url(#radial-gradient-2);
      }

      .cls-19 {
        fill: url(#radial-gradient-16);
      }

      .cls-20 {
        fill: url(#radial-gradient-6);
      }

      .cls-21 {
        fill: url(#radial-gradient-12);
      }

      .cls-22 {
        fill: url(#radial-gradient-11);
      }
    </style>
    <radialGradient id="radial-gradient" cx="57.51" cy="295.66" fx="57.51" fy="295.66" r="84.08" gradientTransform="translate(325.43 -169.46) rotate(61.87)" gradientUnits="userSpaceOnUse">
      <stop offset="0" stop-color="#f07"/>
      <stop offset=".14" stop-color="#fa0279"/>
      <stop offset=".31" stop-color="#eb0a7f"/>
      <stop offset=".49" stop-color="#d3178a"/>
      <stop offset=".67" stop-color="#b22998"/>
      <stop offset=".87" stop-color="#883fab"/>
      <stop offset=".9" stop-color="#8144af"/>
    </radialGradient>
    <radialGradient id="radial-gradient-2" cx="57.51" cy="302.76" fx="57.51" fy="302.76" r="78.71" gradientTransform="translate(239.5 -240.37) rotate(42.49)" xlink:href="#radial-gradient"/>
    <radialGradient id="radial-gradient-3" cx="59.78" cy="314.15" fx="59.78" fy="314.15" r="66.14" gradientTransform="translate(239.5 -240.37) rotate(42.49)" xlink:href="#radial-gradient"/>
    <radialGradient id="radial-gradient-4" cx="62.47" cy="258.4" fx="62.47" fy="258.4" r="51.85" gradientTransform="translate(239.5 -240.37) rotate(42.49)" xlink:href="#radial-gradient"/>
    <radialGradient id="radial-gradient-5" cx="65.88" cy="292.57" fx="65.88" fy="292.57" r="17.43" gradientTransform="translate(239.5 -240.37) rotate(42.49)" xlink:href="#radial-gradient"/>
    <radialGradient id="radial-gradient-6" cx="73.32" cy="268.76" fx="73.32" fy="268.76" r="36.14" gradientTransform="translate(239.5 -240.37) rotate(42.49)" xlink:href="#radial-gradient"/>
    <radialGradient id="radial-gradient-7" cx="85.33" cy="386.97" fx="85.33" fy="386.97" r="23.55" gradientTransform="translate(470.29 -453.67) rotate(46.54) scale(1 1.62)" xlink:href="#radial-gradient"/>
    <radialGradient id="radial-gradient-8" cx="65.02" cy="329.38" fx="65.02" fy="329.38" r="24.75" gradientTransform="translate(239.5 -240.37) rotate(42.49)" xlink:href="#radial-gradient"/>
    <radialGradient id="radial-gradient-9" cx="606.35" cy="-266.91" fx="606.35" fy="-266.91" r="50.53" gradientTransform="translate(-377.94 560.42) rotate(-25.83)" xlink:href="#radial-gradient"/>
    <radialGradient id="radial-gradient-10" cx="102.23" cy="288.07" fx="102.23" fy="288.07" r="24.81" gradientTransform="translate(239.5 -240.37) rotate(42.49)" xlink:href="#radial-gradient"/>
    <radialGradient id="radial-gradient-11" cx="95.98" cy="303.01" fx="95.98" fy="303.01" r="17.16" gradientTransform="translate(239.5 -240.37) rotate(42.49)" xlink:href="#radial-gradient"/>
    <radialGradient id="radial-gradient-12" cx="92.18" cy="334.19" fx="92.18" fy="334.19" r="14.52" gradientTransform="translate(239.5 -240.37) rotate(42.49)" xlink:href="#radial-gradient"/>
    <radialGradient id="radial-gradient-13" cx="95.22" cy="283.88" fx="95.22" fy="283.88" r="47.56" gradientTransform="translate(239.5 -240.37) rotate(42.49)" xlink:href="#radial-gradient"/>
    <radialGradient id="radial-gradient-14" cx="412.31" cy="-239.22" fx="412.31" fy="-239.22" r="45.26" gradientTransform="translate(-329.94 292.37) rotate(-8.29)" xlink:href="#radial-gradient"/>
    <radialGradient id="radial-gradient-15" cx="37.12" cy="297.28" fx="37.12" fy="297.28" r="16.8" gradientTransform="translate(239.5 -240.37) rotate(42.49)" xlink:href="#radial-gradient"/>
    <radialGradient id="radial-gradient-16" cx="40.98" cy="261.02" fx="40.98" fy="261.02" r="42.15" gradientTransform="translate(239.5 -240.37) rotate(42.49)" xlink:href="#radial-gradient"/>
    <radialGradient id="radial-gradient-17" cx="59.66" cy="281" fx="59.66" fy="281" r="12.29" gradientTransform="translate(239.5 -240.37) rotate(42.49)" xlink:href="#radial-gradient"/>
    <radialGradient id="radial-gradient-18" cx="153.64" cy="813.33" fx="153.64" fy="813.33" r="40.31" gradientTransform="translate(907.65 -195.29) rotate(85.57) scale(1 1.05)" xlink:href="#radial-gradient"/>
    <radialGradient id="radial-gradient-19" cx="40.39" cy="317.3" fx="40.39" fy="317.3" r="16.45" gradientTransform="translate(239.5 -240.37) rotate(42.49)" xlink:href="#radial-gradient"/>
    <radialGradient id="radial-gradient-20" cx="55.92" cy="340.97" fx="55.92" fy="340.97" r="13.85" gradientTransform="translate(239.5 -240.37) rotate(42.49)" xlink:href="#radial-gradient"/>
    <radialGradient id="radial-gradient-21" cx="39.53" cy="316.28" fx="39.53" fy="316.28" r="30.48" gradientTransform="translate(239.5 -240.37) rotate(42.49)" xlink:href="#radial-gradient"/>
    <radialGradient id="radial-gradient-22" cx="72.79" cy="321.61" fx="72.79" fy="321.61" r="47.15" gradientTransform="translate(240.38 -239.87) rotate(42.66)" gradientUnits="userSpaceOnUse">
      <stop offset="0" stop-color="#461980"/>
      <stop offset=".43" stop-color="#451b81" stop-opacity=".99"/>
      <stop offset=".58" stop-color="#432386" stop-opacity=".93"/>
      <stop offset=".69" stop-color="#3e318e" stop-opacity=".84"/>
      <stop offset=".78" stop-color="#39459a" stop-opacity=".71"/>
      <stop offset=".86" stop-color="#315fa9" stop-opacity=".54"/>
      <stop offset=".92" stop-color="#287fbc" stop-opacity=".32"/>
      <stop offset=".98" stop-color="#1da4d2" stop-opacity=".08"/>
      <stop offset="1" stop-color="#1ab0da" stop-opacity="0"/>
    </radialGradient>
  </defs>
  <g class="cls-23">
    <g id="Vrstva_1" data-name="Vrstva 1">
      <g>
        <g>
          <g>
            <circle class="cls-29" cx="74.8" cy="46.73" r="38.24" transform="translate(-11.27 27.47) rotate(-19.38)"/>
            <path class="cls-25" d="m46.6,23.55c14.26-15.57,38.45-16.64,54.03-2.37,7.86,7.2,12.02,16.92,12.38,26.79.35-10.76-3.82-21.6-12.38-29.44-15.57-14.26-39.76-13.2-54.03,2.37-7.07,7.71-10.36,17.54-10.01,27.23.28-8.81,3.59-17.57,10.01-24.58Z"/>
            <path class="cls-25" d="m44.22,46.73c12.65-13.81,34.09-14.75,47.9-2.1,6.75,6.18,10.41,14.46,10.93,22.92,8.92-13.65,6.91-32.13-5.51-43.5-13.81-12.65-35.25-11.7-47.9,2.1-6.47,7.06-9.37,16.12-8.83,24.97,1-1.53,2.13-3,3.4-4.39Z"/>
            <path class="cls-18" d="m112.55,40.68c-1.47,3.16-3.44,6.14-5.91,8.85-13.01,14.21-35.08,15.18-49.29,2.16-8.78-8.04-12.5-19.54-10.99-30.51-14,15.58-12.87,39.57,2.62,53.74,15.57,14.26,39.76,13.2,54.03-2.37,8.2-8.95,11.32-20.75,9.55-31.88Z"/>
            <path class="cls-11" d="m109.44,56.3c-1.55,3.63-3.73,7.06-6.54,10.13-13.45,14.68-36.25,15.68-50.94,2.24-10.26-9.4-13.82-23.35-10.46-35.92-5.85,13.68-2.8,30.13,8.8,40.75,14.68,13.45,37.49,12.45,50.94-2.24,4.04-4.41,6.76-9.56,8.21-14.96Z"/>
            <g>
              <path class="cls-6" d="m105.25,50.51c-3.93,1.91-9.27-.97-11.93-6.44-2.66-5.47-1.62-11.45,2.31-13.36,3.93-1.91,9.27.97,11.93,6.44,2.66,5.47,1.62,11.45-2.31,13.36Zm-17.28-16.35c-1.22-2.51-3.68-3.84-5.49-2.96s-2.28,3.63-1.06,6.14c1.22,2.51,3.68,3.84,5.49,2.96,1.81-.88,2.28-3.63,1.06-6.14Z"/>
              <g>
                <path class="cls-7" d="m87.97,34.16c-1.22-2.51-3.68-3.84-5.49-2.96-.27.13-.5.32-.71.53,1.62-.08,3.44,1.15,4.43,3.21,1.04,2.14.84,4.43-.35,5.62.36-.02.72-.08,1.05-.24,1.81-.88,2.28-3.63,1.06-6.14Z"/>
                <path class="cls-20" d="m107.56,37.15c-2.66-5.47-8-8.35-11.93-6.44-.23.11-.45.24-.66.38,3.78-.96,8.41,1.86,10.82,6.83,2.5,5.15,1.73,10.75-1.65,12.98.38-.1.75-.22,1.11-.39,3.93-1.91,4.97-7.89,2.31-13.36Z"/>
              </g>
            </g>
            <g>
              <path class="cls-17" d="m67.77,72.96c-2.48,2.35-7.14,1.46-10.41-1.99-3.27-3.45-3.91-8.15-1.43-10.5,2.48-2.35,7.14-1.46,10.41,1.99,3.27,3.45,3.91,8.15,1.43,10.5Z"/>
              <path class="cls-8" d="m69.14,70.43c-.11.13-.23.26-.35.39-2.48,2.35-7.14,1.46-10.41-1.99-2.33-2.46-3.32-5.55-2.79-7.98-2.05,2.45-1.32,6.84,1.78,10.12,3.27,3.45,7.93,4.34,10.41,1.99.71-.67,1.16-1.55,1.37-2.52Z"/>
            </g>
            <g>
              <path class="cls-10" d="m100.51,67.5c1.18,2.43-2.3,6.55-7.77,9.2-5.47,2.65-10.86,2.83-12.04.39-1.18-2.43,2.3-6.55,7.77-9.2,5.47-2.65,10.86-2.83,12.04-.39Zm-24.77,11.74c-2.21-.05-4.03.71-4.05,1.69-.02.98,1.76,1.82,3.97,1.87,2.21.05,4.03-.71,4.05-1.69.02-.98-1.76-1.82-3.97-1.87Zm27.1-19.73c-1.61,2.61-1.98,5.31-.82,6.02s3.41-.82,5.02-3.43,1.98-5.31.82-6.02c-1.16-.72-3.41.82-5.02,3.43Zm-7.2,1.14c-2.04.85-3.39,2.28-3.01,3.19.38.91,2.34.95,4.39.1s3.39-2.28,3.01-3.19c-.38-.91-2.34-.95-4.39-.1Z"/>
              <g>
                <path class="cls-1" d="m106.12,60.82c-1.49,2.42-3.52,3.89-4.73,3.53.07.54.27.97.63,1.19,1.16.72,3.41-.82,5.02-3.43s1.98-5.31.82-6.02c-.09-.05-.19-.07-.29-.1.17,1.2-.34,3.03-1.45,4.83Z"/>
                <path class="cls-22" d="m96.09,62.65c-1.33.56-2.62.72-3.47.53-.07.24-.08.46,0,.66.38.91,2.34.95,4.39.1s3.39-2.28,3.01-3.19c-.13-.32-.47-.52-.92-.63-.26.85-1.41,1.86-3.01,2.53Z"/>
                <path class="cls-21" d="m78.76,79.94c-.16.93-1.9,1.62-4.02,1.58-1.22-.03-2.3-.3-3.02-.7,0,.04-.03.08-.03.12-.02.98,1.76,1.82,3.97,1.87,2.21.05,4.03-.71,4.05-1.69,0-.44-.36-.85-.95-1.17Z"/>
                <path class="cls-14" d="m100.51,67.5c-.17-.35-.44-.64-.78-.89.66,2.46-2.73,6.29-7.92,8.8-4.68,2.26-9.29,2.72-11.26,1.28.04.14.08.27.14.4,1.18,2.43,6.57,2.26,12.04-.39,5.47-2.65,8.95-6.77,7.77-9.2Z"/>
              </g>
            </g>
            <g>
              <path class="cls-3" d="m84.79,15.07c.39,2.67-4.17,5.55-10.19,6.43-6.02.88-11.21-.58-11.6-3.25-.39-2.67,4.17-5.55,10.19-6.43,6.01-.88,11.21.58,11.6,3.25Zm6.25,1.31c-2.09-.74-4.05-.58-4.37.35s1.1,2.28,3.19,3.01c2.09.74,4.05.58,4.37-.35s-1.1-2.28-3.19-3.01Zm-34.13.18c-2.1.69-3.56,2.01-3.25,2.95.31.94,2.26,1.13,4.37.44,2.1-.69,3.56-2.01,3.25-2.95-.31-.93-2.26-1.13-4.37-.44Z"/>
              <g>
                <path class="cls-12" d="m56.47,18.38c1.82-.6,3.52-.53,4.15.1.54-.51.8-1.05.65-1.49-.31-.93-2.26-1.13-4.37-.44-2.1.69-3.56,2.01-3.25,2.95.04.13.12.24.22.34.59-.56,1.5-1.09,2.6-1.45Z"/>
                <path class="cls-19" d="m72.76,13.64c5.98-.87,11.15.57,11.59,3.21.36-.59.53-1.19.45-1.79-.39-2.67-5.58-4.13-11.6-3.25-6.02.88-10.58,3.75-10.19,6.43,0,.01,0,.03.01.04,1.27-2.07,5.06-3.96,9.74-4.64Z"/>
                <path class="cls-4" d="m90.6,18.2c1.29.45,2.33,1.14,2.86,1.82.39-.14.67-.34.77-.64.33-.93-1.1-2.28-3.19-3.01-2.09-.74-4.05-.58-4.37.35-.12.35,0,.77.34,1.19.83-.29,2.18-.21,3.6.29Z"/>
              </g>
            </g>
            <g>
              <path class="cls-16" d="m43.09,54.57c-2.13.17-4.15-3.41-4.51-7.99-.35-4.58,1.09-8.42,3.22-8.59,2.13-.17,4.15,3.41,4.51,7.99.35,4.58-1.09,8.42-3.22,8.59Zm4.59,5.99c-.65-2.19-2-3.73-3.02-3.43-1.02.3-1.33,2.32-.68,4.52.65,2.19,2,3.73,3.02,3.42,1.02-.3,1.33-2.32.68-4.52Zm1.52-25.27c.17-2.28-.56-4.19-1.63-4.27-1.06-.08-2.06,1.71-2.23,3.99-.17,2.28.56,4.19,1.63,4.27,1.06.08,2.06-1.71,2.23-3.99Z"/>
              <g>
                <path class="cls-5" d="m46.98,39.28c.34.02.67-.16.97-.47-.72-.61-1.16-2.17-1.02-3.99.11-1.55.61-2.85,1.25-3.52-.18-.16-.38-.27-.6-.28-1.06-.08-2.06,1.71-2.23,3.99-.17,2.28.56,4.19,1.63,4.27Z"/>
                <path class="cls-9" d="m45.55,61.46c-.51-1.72-.42-3.33.13-4.09-.35-.23-.71-.33-1.03-.24-1.02.3-1.33,2.32-.68,4.52.65,2.19,2,3.73,3.02,3.42.22-.06.4-.22.55-.43-.77-.5-1.55-1.68-2-3.19Z"/>
                <path class="cls-2" d="m40.16,46.39c-.31-3.94.73-7.32,2.38-8.3-.24-.08-.48-.12-.73-.1-2.13.17-3.58,4.01-3.22,8.59.35,4.58,2.37,8.16,4.51,7.99.3-.02.58-.13.84-.29-1.85-.58-3.46-3.84-3.78-7.89Z"/>
              </g>
            </g>
            <circle class="cls-24" cx="74.8" cy="46.73" r="46.73" transform="translate(-.14 .23) rotate(-.18)"/>
          </g>
          <g class="cls-28">
            <g>
              <g class="cls-28">
                <path class="cls-26" d="m79.1,21.01c.28,2.64-3.28,5.18-7.96,5.69-4.68.51-8.71-1.22-8.99-3.86-.28-2.64,3.28-5.18,7.96-5.69,4.68-.5,8.71,1.22,8.99,3.86Z"/>
              </g>
              <g class="cls-28">
                <path class="cls-26" d="m91.53,23.12c-.39,1.51-2.89,2.17-5.57,1.47-2.68-.7-4.53-2.49-4.14-4,.39-1.51,2.89-2.17,5.57-1.47,2.68.7,4.53,2.49,4.14,4Z"/>
              </g>
            </g>
          </g>
        </g>
        <g>
          <path class="cls-26" d="m146.58,65.57c1.84-6.9-12.19-17.07-34.37-26.25.32,1.5.46,3.08.48,4.66,13.56,6.5,21.66,13.21,20.38,17.99-2.17,8.15-30.67,7.63-63.64-1.17C36.46,52,11.49,38.26,13.67,30.11c1.38-5.17,13.35-6.85,30.33-5.14.66-1.33,1.48-2.55,2.43-3.65C20.88,17.62,2.09,19.29.16,26.51c-2.67,10,27.95,26.84,68.38,37.63,40.43,10.79,75.37,11.43,78.04,1.43Z"/>
          <path class="cls-13" d="m117.62,43.07c.23-.4.55-.73.94-1-2.03-.93-4.15-1.85-6.35-2.76.32,1.5.46,3.08.48,4.66,13.56,6.5,21.66,13.21,20.38,17.99-2.17,8.15-30.67,7.63-63.64-1.17C36.46,52,11.49,38.26,13.67,30.11c1.38-5.17,13.35-6.85,30.33-5.14.66-1.33,1.48-2.55,2.43-3.65-14.06-2.04-26.07-2.45-34.36-1.2,8.64-.05,23.37.09,22.29,1.76-1.52,2.34-30.04-3.55-22.53,12.03,7.5,15.58,53.48,27.21,71.37,31.46,17.89,4.25,42.96,5.75,53.44.41,10.48-5.33-21.59-18.21-19.02-22.71Z"/>
          <g class="cls-27">
            <g>
              <g class="cls-15">
                <path class="cls-26" d="m10.42,35.28c-.15.09-.63-.39-1.44-.97-.79-.61-1.95-1.3-3.05-2.36-1.08-1.05-1.92-2.55-1.94-3.97-.02-.69.14-1.28.29-1.66.15-.39.28-.58.28-.58,0,0,.13-.2.39-.5.26-.3.67-.66,1.19-.99,1.03-.67,2.47-1.12,3.81-1.43,2.73-.69,5.52-.88,5.58-.54.06.33-2.57,1.11-5.04,2.18-1.27.52-2.41,1.08-3.05,1.63-.65.54-.8.95-.8.95,0,0-.31.33-.39,1-.1.66.25,1.8,1,2.8.73.99,1.78,1.96,2.42,2.82.66.86.91,1.56.77,1.64Z"/>
              </g>
              <g class="cls-15">
                <path class="cls-26" d="m127.08,71.65c-.02-.33,4.42-.92,8.67-2.13,2.15-.58,4.22-1.23,5.38-2.1.6-.41.97-.83,1.22-1.14.24-.31.34-.51.34-.51,0,0,.13-.18.31-.51.17-.33.37-.83.37-1.43.01-.6-.21-1.37-.68-2.19-.47-.81-1.13-1.69-1.83-2.5-1.4-1.63-3.1-3.01-4.48-3.91-1.37-.91-2.38-1.42-2.32-1.58.05-.15,1.18.06,2.77.75,1.58.68,3.57,1.93,5.27,3.55.85.82,1.63,1.66,2.29,2.62.66.95,1.14,2.08,1.21,3.16.08,1.09-.21,1.96-.44,2.51-.24.56-.43.84-.43.84,0,0-.18.29-.57.73-.38.43-1.01,1.02-1.84,1.5-1.66,1.02-4.01,1.51-6.21,1.89-4.49.8-9.03.79-9.05.45Z"/>
              </g>
            </g>
          </g>
        </g>
      </g>
    </g>
  </g>
</svg>