<?xml version="1.0" encoding="UTF-8"?>
<svg xmlns="http://www.w3.org/2000/svg" xmlns:xlink="http://www.w3.org/1999/xlink" viewBox="0 0 135.48 93.46">
  <defs>
    <style>
      .cls-1 {
        fill: url(#radial-gradient-10);
      }

      .cls-1, .cls-2, .cls-3, .cls-4, .cls-5, .cls-6, .cls-7, .cls-8, .cls-9, .cls-10, .cls-11, .cls-12, .cls-13, .cls-14, .cls-15, .cls-16, .cls-17, .cls-18, .cls-19, .cls-20, .cls-21, .cls-22 {
        mix-blend-mode: multiply;
      }

      .cls-1, .cls-2, .cls-3, .cls-4, .cls-5, .cls-6, .cls-7, .cls-8, .cls-9, .cls-10, .cls-11, .cls-12, .cls-14, .cls-16, .cls-17, .cls-18, .cls-19, .cls-20, .cls-21, .cls-22 {
        opacity: .5;
      }

      .cls-2 {
        fill: url(#radial-gradient-21);
      }

      .cls-23 {
        fill: url(#radial-gradient);
      }

      .cls-23, .cls-24, .cls-25, .cls-26 {
        mix-blend-mode: screen;
      }

      .cls-3 {
        fill: url(#radial-gradient-14);
      }

      .cls-4 {
        fill: url(#radial-gradient-17);
      }

      .cls-5 {
        fill: url(#radial-gradient-19);
      }

      .cls-6 {
        fill: url(#radial-gradient-4);
      }

      .cls-27 {
        isolation: isolate;
      }

      .cls-7 {
        fill: url(#radial-gradient-5);
      }

      .cls-8 {
        fill: url(#radial-gradient-8);
      }

      .cls-9 {
        fill: url(#radial-gradient-20);
      }

      .cls-10 {
        fill: url(#radial-gradient-9);
      }

      .cls-11 {
        fill: url(#radial-gradient-3);
      }

      .cls-24, .cls-13, .cls-28 {
        fill: #f3a400;
      }

      .cls-24, .cls-26 {
        opacity: .45;
      }

      .cls-12 {
        fill: url(#radial-gradient-15);
      }

      .cls-13, .cls-15 {
        opacity: .54;
      }

      .cls-14 {
        fill: url(#radial-gradient-13);
      }

      .cls-16 {
        fill: url(#radial-gradient-18);
      }

      .cls-17 {
        fill: url(#radial-gradient-22);
      }

      .cls-29 {
        fill: url(#radial-gradient-2);
      }

      .cls-18 {
        fill: url(#radial-gradient-7);
      }

      .cls-19 {
        fill: url(#radial-gradient-16);
      }

      .cls-20 {
        fill: url(#radial-gradient-6);
      }

      .cls-21 {
        fill: url(#radial-gradient-12);
      }

      .cls-22 {
        fill: url(#radial-gradient-11);
      }
    </style>
    <radialGradient id="radial-gradient" cx="69.58" cy="45.37" fx="69.58" fy="45.37" r="47.14" gradientUnits="userSpaceOnUse">
      <stop offset=".05" stop-color="#f3a400"/>
      <stop offset=".41" stop-color="#f2a301" stop-opacity=".99"/>
      <stop offset=".54" stop-color="#f29f06" stop-opacity=".96"/>
      <stop offset=".63" stop-color="#f2990f" stop-opacity=".92"/>
      <stop offset=".7" stop-color="#f1911c" stop-opacity=".85"/>
      <stop offset=".77" stop-color="#f1852d" stop-opacity=".76"/>
      <stop offset=".82" stop-color="#f07841" stop-opacity=".64"/>
      <stop offset=".87" stop-color="#ef675a" stop-opacity=".51"/>
      <stop offset=".92" stop-color="#ee5476" stop-opacity=".35"/>
      <stop offset=".96" stop-color="#ed3f95" stop-opacity=".19"/>
      <stop offset="1" stop-color="#ec29b8" stop-opacity="0"/>
    </radialGradient>
    <radialGradient id="radial-gradient-2" cx="54.3" cy="19.42" fx="54.3" fy="19.42" r="84.08" gradientUnits="userSpaceOnUse">
      <stop offset="0" stop-color="#f07"/>
      <stop offset=".14" stop-color="#fa0279"/>
      <stop offset=".31" stop-color="#eb0a7f"/>
      <stop offset=".49" stop-color="#d3178a"/>
      <stop offset=".67" stop-color="#b22998"/>
      <stop offset=".87" stop-color="#883fab"/>
      <stop offset=".9" stop-color="#8144af"/>
    </radialGradient>
    <radialGradient id="radial-gradient-3" cx="54.31" cy="26.52" fx="54.31" fy="26.52" r="78.71" xlink:href="#radial-gradient-2"/>
    <radialGradient id="radial-gradient-4" cx="56.58" cy="37.91" fx="56.58" fy="37.91" r="66.14" xlink:href="#radial-gradient-2"/>
    <radialGradient id="radial-gradient-5" cx="59.27" cy="-17.84" fx="59.27" fy="-17.84" r="51.85" xlink:href="#radial-gradient-2"/>
    <radialGradient id="radial-gradient-6" cx="62.67" cy="16.32" fx="62.67" fy="16.32" r="17.43" xlink:href="#radial-gradient-2"/>
    <radialGradient id="radial-gradient-7" cx="70.11" cy="-7.48" fx="70.11" fy="-7.48" r="36.14" xlink:href="#radial-gradient-2"/>
    <radialGradient id="radial-gradient-8" cx="63.64" cy="216.6" fx="63.64" fy="216.6" r="23.55" gradientTransform="translate(25.11 -312.84) rotate(4.05) scale(1 1.62)" xlink:href="#radial-gradient-2"/>
    <radialGradient id="radial-gradient-9" cx="61.81" cy="53.14" fx="61.81" fy="53.14" r="24.74" xlink:href="#radial-gradient-2"/>
    <radialGradient id="radial-gradient-10" cx="87.48" cy="-45.29" fx="87.48" fy="-45.29" r="97.48" xlink:href="#radial-gradient-2"/>
    <radialGradient id="radial-gradient-11" cx="99.03" cy="11.83" fx="99.03" fy="11.83" r="24.81" xlink:href="#radial-gradient-2"/>
    <radialGradient id="radial-gradient-12" cx="92.78" cy="26.76" fx="92.78" fy="26.76" r="17.16" xlink:href="#radial-gradient-2"/>
    <radialGradient id="radial-gradient-13" cx="88.98" cy="57.95" fx="88.98" fy="57.95" r="14.52" xlink:href="#radial-gradient-2"/>
    <radialGradient id="radial-gradient-14" cx="92.02" cy="7.64" fx="92.02" fy="7.64" r="47.55" xlink:href="#radial-gradient-2"/>
    <radialGradient id="radial-gradient-15" cx="29.75" cy="-37.53" fx="29.75" fy="-37.53" r="69.53" xlink:href="#radial-gradient-2"/>
    <radialGradient id="radial-gradient-16" cx="33.92" cy="21.03" fx="33.92" fy="21.03" r="16.8" xlink:href="#radial-gradient-2"/>
    <radialGradient id="radial-gradient-17" cx="37.77" cy="-15.22" fx="37.77" fy="-15.22" r="42.15" xlink:href="#radial-gradient-2"/>
    <radialGradient id="radial-gradient-18" cx="56.45" cy="4.76" fx="56.45" fy="4.76" r="12.29" xlink:href="#radial-gradient-2"/>
    <radialGradient id="radial-gradient-19" cx="34.37" cy="6.61" fx="34.37" fy="6.61" r="62.75" xlink:href="#radial-gradient-2"/>
    <radialGradient id="radial-gradient-20" cx="37.19" cy="41.06" fx="37.19" fy="41.06" r="16.45" xlink:href="#radial-gradient-2"/>
    <radialGradient id="radial-gradient-21" cx="52.71" cy="64.72" fx="52.71" fy="64.72" r="13.84" xlink:href="#radial-gradient-2"/>
    <radialGradient id="radial-gradient-22" cx="36.32" cy="40.04" fx="36.32" fy="40.04" r="30.48" xlink:href="#radial-gradient-2"/>
  </defs>
  <g class="cls-27">
    <g id="Vrstva_1" data-name="Vrstva 1">
      <g>
        <g>
          <g>
            <circle class="cls-23" cx="69.26" cy="46.73" r="46.73"/>
            <circle class="cls-29" cx="69.26" cy="46.73" r="38.24"/>
            <path class="cls-24" d="m32.81,48.68c0-21.12,17.12-38.24,38.24-38.24,10.66,0,20.29,4.36,27.23,11.4-7.01-8.17-17.41-13.35-29.02-13.35-21.12,0-38.24,17.12-38.24,38.24,0,10.46,4.2,19.94,11.01,26.84-5.74-6.69-9.22-15.38-9.22-24.89Z"/>
            <path class="cls-24" d="m46.71,67.39c0-18.72,15.18-33.9,33.9-33.9,9.15,0,17.45,3.63,23.54,9.52-2.64-16.09-16.61-28.36-33.44-28.36-18.72,0-33.9,15.18-33.9,33.9,0,9.57,3.98,18.22,10.36,24.38-.3-1.8-.46-3.65-.46-5.54Z"/>
            <path class="cls-11" d="m93.01,16.77c1.05,3.32,1.62,6.85,1.62,10.52,0,19.27-15.62,34.89-34.89,34.89-11.91,0-22.41-5.97-28.71-15.07.2,20.95,17.24,37.87,38.23,37.87s38.24-17.12,38.24-38.24c0-12.14-5.66-22.95-14.49-29.96Z"/>
            <path class="cls-6" d="m101.27,30.39c1.3,3.72,2.02,7.72,2.02,11.89,0,19.91-16.14,36.05-36.05,36.05-13.91,0-25.97-7.88-31.98-19.42,4.93,14.04,18.29,24.11,34.01,24.11,19.91,0,36.05-16.14,36.05-36.05,0-5.98-1.47-11.61-4.05-16.58Z"/>
            <g>
              <path class="cls-7" d="m94.27,28.95c-1.61,4.06-7.5,5.54-13.15,3.31-5.65-2.24-8.93-7.35-7.32-11.41,1.61-4.06,7.5-5.54,13.15-3.31,5.65,2.24,8.93,7.35,7.32,11.41Zm-23.78-.38c-2.6-1.03-5.31-.35-6.05,1.52-.74,1.87.77,4.22,3.36,5.25s5.31.35,6.05-1.52-.77-4.22-3.36-5.25Z"/>
              <g>
                <path class="cls-20" d="m70.49,28.57c-2.6-1.03-5.31-.35-6.05,1.52-.11.28-.16.57-.17.87,1.14-1.16,3.31-1.47,5.43-.63,2.21.88,3.61,2.7,3.53,4.38.26-.26.48-.55.61-.89.74-1.87-.77-4.22-3.36-5.25Z"/>
                <path class="cls-18" d="m86.95,17.54c-5.65-2.24-11.54-.76-13.15,3.31-.09.24-.17.48-.23.73,2.14-3.26,7.46-4.31,12.6-2.27,5.32,2.11,8.53,6.76,7.55,10.69.21-.33.41-.67.55-1.03,1.61-4.06-1.67-9.17-7.32-11.41Z"/>
              </g>
            </g>
            <g>
              <path class="cls-8" d="m81.79,70.82c-.24,3.41-4.28,5.9-9.02,5.56-4.74-.34-8.39-3.37-8.15-6.78.24-3.41,4.28-5.9,9.02-5.57,4.74.34,8.39,3.37,8.15,6.78Z"/>
              <path class="cls-10" d="m81.1,68.03c0,.17.01.35,0,.52-.24,3.41-4.28,5.9-9.02,5.56-3.38-.24-6.2-1.85-7.45-4,.14,3.19,3.65,5.94,8.15,6.26,4.74.34,8.78-2.16,9.02-5.57.07-.98-.19-1.92-.7-2.78Z"/>
            </g>
            <g>
              <path class="cls-1" d="m102.25,44.69c2.51,1,2.73,6.39.48,12.03-2.25,5.65-6.1,9.42-8.61,8.42-2.51-1-2.73-6.39-.48-12.03,2.25-5.65,6.1-9.42,8.61-8.42Zm-10.34,25.39c-1.67,1.46-2.49,3.24-1.84,3.98.65.74,2.52.16,4.19-1.3,1.67-1.46,2.49-3.24,1.84-3.98-.65-.74-2.52-.16-4.19,1.3Zm6.66-32.86c.57,3.01,2.12,5.25,3.46,5,1.34-.25,1.96-2.9,1.39-5.92-.57-3.01-2.12-5.25-3.46-5-1.34.25-1.96,2.9-1.39,5.92Zm-4.54,5.7c-.93,2.01-.96,3.97-.07,4.39.89.41,2.37-.88,3.3-2.89.93-2.01.96-3.97.07-4.39-.89-.41-2.37.88-3.3,2.89Z"/>
              <g>
                <path class="cls-22" d="m101.87,35.97c.53,2.79.03,5.24-1.11,5.8.42.35.85.53,1.27.45,1.34-.25,1.96-2.9,1.39-5.92-.57-3.01-2.12-5.25-3.46-4.99-.1.02-.19.08-.28.12.94.78,1.8,2.46,2.19,4.54Z"/>
                <path class="cls-21" d="m95.71,44.09c-.61,1.31-1.44,2.3-2.2,2.73.11.22.25.4.45.49.89.41,2.37-.88,3.3-2.89.93-2.01.96-3.97.07-4.39-.31-.14-.69-.07-1.1.16.38.8.21,2.33-.51,3.9Z"/>
                <path class="cls-14" d="m94.61,68.55c.51.79-.3,2.48-1.9,3.88-.92.81-1.9,1.33-2.7,1.53.02.03.03.08.06.11.65.74,2.52.16,4.19-1.3,1.67-1.46,2.49-3.24,1.84-3.98-.29-.33-.83-.39-1.49-.23Z"/>
                <path class="cls-3" d="m102.25,44.69c-.36-.14-.76-.18-1.17-.13,2.15,1.37,2.23,6.48.11,11.83-1.92,4.83-5.01,8.27-7.44,8.55.12.08.24.15.37.2,2.51,1,6.37-2.77,8.61-8.42,2.25-5.65,2.03-11.04-.48-12.03Z"/>
              </g>
            </g>
            <g>
              <path class="cls-12" d="m55.24,16.63c2.09,1.71.67,6.91-3.17,11.62-3.84,4.71-8.66,7.14-10.75,5.43-2.09-1.71-.67-6.91,3.17-11.62,3.84-4.71,8.66-7.14,10.75-5.43Zm5.49-3.26c-2.04.87-3.38,2.31-2.99,3.21s2.35.94,4.39.07c2.04-.87,3.38-2.31,2.99-3.21-.39-.91-2.35-.94-4.39-.07Zm-25.05,23.19c-1.08,1.93-1.27,3.89-.41,4.37.86.48,2.43-.69,3.52-2.62,1.08-1.93,1.27-3.89.41-4.37-.86-.48-2.43.69-3.52,2.62Z"/>
              <g>
                <path class="cls-19" d="m36.6,38.21c.94-1.67,2.24-2.77,3.13-2.73.05-.74-.12-1.31-.53-1.54-.86-.48-2.43.69-3.52,2.62-1.08,1.93-1.27,3.89-.41,4.37.12.07.25.09.39.1.05-.81.37-1.82.93-2.83Z"/>
                <path class="cls-4" d="m45.4,23.71c3.82-4.68,8.6-7.11,10.71-5.46-.13-.68-.41-1.24-.88-1.62-2.09-1.71-6.91.72-10.75,5.43-3.84,4.71-5.26,9.91-3.17,11.62.01,0,.02.01.04.02-.46-2.38,1.06-6.34,4.05-10Z"/>
                <path class="cls-16" d="m61.65,15.02c1.26-.54,2.49-.73,3.34-.58.19-.36.26-.7.14-.99-.39-.91-2.35-.94-4.39-.07-2.04.87-3.38,2.31-2.99,3.21.15.35.53.56,1.05.65.41-.77,1.46-1.63,2.85-2.22Z"/>
              </g>
            </g>
            <g>
              <path class="cls-5" d="m51.17,73.93c-1.46,1.56-5.37.29-8.72-2.85-3.35-3.14-4.89-6.95-3.42-8.51,1.46-1.56,5.37-.29,8.72,2.85,3.35,3.14,4.89,6.95,3.42,8.51Zm7.43,1.31c-1.96-1.18-3.99-1.4-4.54-.48-.55.91.59,2.61,2.55,3.79,1.96,1.18,3.99,1.4,4.54.48s-.59-2.61-2.55-3.79Zm-15.94-19.66c-1.42-1.79-3.25-2.71-4.08-2.05s-.36,2.65,1.05,4.45c1.42,1.79,3.25,2.71,4.08,2.05s.36-2.65-1.05-4.45Z"/>
              <g>
                <path class="cls-9" d="m43.71,60.03c.27-.21.39-.57.4-1.01-.94.04-2.32-.82-3.45-2.25-.96-1.22-1.48-2.52-1.45-3.44-.24,0-.46.06-.63.2-.84.66-.36,2.65,1.05,4.45,1.42,1.79,3.25,2.71,4.08,2.05Z"/>
                <path class="cls-2" d="m57.64,77.35c-1.54-.93-2.56-2.17-2.67-3.1-.42.07-.75.23-.92.52-.55.91.59,2.61,2.55,3.79,1.96,1.18,3.99,1.4,4.54.48.12-.2.14-.43.11-.69-.91.15-2.28-.19-3.63-1Z"/>
                <path class="cls-17" d="m43.48,69.88c-2.89-2.7-4.41-5.89-3.85-7.72-.23.11-.44.24-.61.42-1.46,1.56.07,5.37,3.42,8.51,3.35,3.14,7.26,4.41,8.72,2.85.2-.22.34-.49.43-.78-1.76.82-5.15-.49-8.11-3.27Z"/>
              </g>
            </g>
          </g>
          <g class="cls-26">
            <g>
              <g class="cls-26">
                <path class="cls-28" d="m55.06,24.86c1.99,1.75,1.08,6.04-2.03,9.57-3.11,3.54-7.25,4.98-9.24,3.23-1.99-1.75-1.08-6.04,2.03-9.58,3.11-3.54,7.25-4.98,9.24-3.23Z"/>
              </g>
              <g class="cls-26">
                <path class="cls-28" d="m65.65,18.02c.73,1.38-.67,3.55-3.12,4.84-2.45,1.29-5.03,1.23-5.76-.15-.73-1.38.67-3.55,3.12-4.84,2.45-1.29,5.03-1.23,5.76.15Z"/>
              </g>
            </g>
          </g>
        </g>
        <g>
          <path class="cls-28" d="m134.92,12.14c-3.3-6.33-20.52-4.35-43.07,3.85,1.25.89,2.42,1.96,3.5,3.11,14.39-4.36,24.89-4.88,27.18-.49,3.9,7.48-17.46,26.34-47.72,42.12-30.26,15.78-57.95,22.52-61.85,15.04-2.47-4.74,5.22-14.06,18.89-24.27-.41-1.43-.63-2.88-.67-4.33C9.84,61.68-2.9,75.6.56,82.23c4.78,9.17,38.74.92,75.84-18.44,37.1-19.35,63.3-42.48,58.51-51.65Z"/>
          <path class="cls-13" d="m98.37,15.11c-.1-.45-.08-.91.02-1.37-2.13.69-4.31,1.44-6.55,2.25,1.25.89,2.42,1.96,3.5,3.11,14.39-4.36,24.89-4.88,27.18-.49,3.9,7.48-17.46,26.34-47.72,42.12-30.26,15.78-57.95,22.52-61.85,15.04-2.47-4.74,5.22-14.06,18.89-24.27-.41-1.43-.63-2.88-.67-4.33-11.75,7.99-20.88,15.8-26.15,22.32,6.33-5.87,17.3-15.72,17.63-13.76.46,2.75-24.55,17.67-8.49,24.09,16.06,6.42,57.82-16.06,73.88-25.01,16.06-8.95,35.56-24.78,39.69-35.79,4.13-11.01-28.22,1.15-29.37-3.9Z"/>
          <g class="cls-25">
            <g>
              <g class="cls-15">
                <path class="cls-28" d="m14.05,81.77c-.05.17-.72.14-1.72.25-1,.08-2.32.36-3.84.32-1.5-.04-3.14-.58-4.11-1.62-.48-.5-.76-1.04-.91-1.42-.15-.39-.19-.62-.19-.62,0,0-.04-.23-.05-.63,0-.4.05-.94.2-1.53.31-1.19,1.07-2.49,1.84-3.63,1.55-2.35,3.48-4.38,3.75-4.17.26.2-1.14,2.55-2.25,5.01-.59,1.24-1.05,2.42-1.15,3.26-.11.84.05,1.24.05,1.24,0,0,0,.45.38,1,.37.56,1.41,1.16,2.63,1.39,1.21.24,2.64.24,3.69.45,1.07.18,1.72.54,1.68.69Z"/>
              </g>
              <g class="cls-15">
                <path class="cls-28" d="m124.65,29.79c-.24-.23,2.63-3.66,4.96-7.43,1.2-1.88,2.28-3.76,2.55-5.18.16-.71.16-1.27.13-1.67-.04-.39-.09-.61-.09-.61,0,0-.02-.22-.12-.58-.1-.36-.29-.86-.69-1.3-.4-.45-1.08-.87-1.98-1.15-.89-.28-1.98-.48-3.04-.61-2.13-.25-4.32-.12-5.94.14-1.63.26-2.71.56-2.78.4-.06-.14.91-.76,2.55-1.32,1.63-.56,3.94-.99,6.28-.94,1.18.03,2.32.13,3.46.38,1.13.25,2.25.76,3.03,1.51.79.75,1.17,1.58,1.37,2.15.2.57.25.91.25.91,0,0,.06.34.07.92.01.58-.06,1.43-.34,2.35-.54,1.88-1.94,3.82-3.31,5.59-2.77,3.62-6.13,6.68-6.37,6.44Z"/>
              </g>
            </g>
          </g>
        </g>
      </g>
    </g>
  </g>
</svg>