<?xml version="1.0" encoding="UTF-8"?>
<svg xmlns="http://www.w3.org/2000/svg" xmlns:xlink="http://www.w3.org/1999/xlink" viewBox="0 0 130.44 85.57">
  <defs>
    <style>
      .cls-1 {
        fill: url(#radial-gradient-10);
      }

      .cls-1, .cls-2, .cls-3, .cls-4, .cls-5, .cls-6, .cls-7, .cls-8, .cls-9, .cls-10, .cls-11, .cls-12, .cls-13, .cls-14, .cls-15, .cls-16, .cls-17, .cls-18, .cls-19, .cls-20, .cls-21, .cls-22 {
        mix-blend-mode: multiply;
      }

      .cls-1, .cls-2, .cls-3, .cls-4, .cls-5, .cls-6, .cls-7, .cls-8, .cls-9, .cls-10, .cls-11, .cls-12, .cls-14, .cls-16, .cls-17, .cls-18, .cls-19, .cls-20, .cls-21, .cls-22 {
        opacity: .5;
      }

      .cls-2 {
        fill: url(#radial-gradient-21);
      }

      .cls-3 {
        fill: url(#radial-gradient-14);
      }

      .cls-4 {
        fill: url(#radial-gradient-17);
      }

      .cls-5 {
        fill: url(#radial-gradient-19);
      }

      .cls-6 {
        fill: url(#radial-gradient-4);
      }

      .cls-23 {
        isolation: isolate;
      }

      .cls-7 {
        fill: url(#radial-gradient-5);
      }

      .cls-8 {
        fill: url(#radial-gradient-8);
      }

      .cls-24 {
        fill: url(#radial-gradient-22);
      }

      .cls-24, .cls-25, .cls-26, .cls-27 {
        mix-blend-mode: screen;
      }

      .cls-9 {
        fill: url(#radial-gradient-20);
      }

      .cls-10 {
        fill: url(#radial-gradient-9);
      }

      .cls-11 {
        fill: url(#radial-gradient-3);
      }

      .cls-25, .cls-13, .cls-28 {
        fill: #f3a400;
      }

      .cls-25, .cls-27 {
        opacity: .45;
      }

      .cls-12 {
        fill: url(#radial-gradient-15);
      }

      .cls-13, .cls-15 {
        opacity: .54;
      }

      .cls-29 {
        fill: url(#radial-gradient);
      }

      .cls-14 {
        fill: url(#radial-gradient-13);
      }

      .cls-16 {
        fill: url(#radial-gradient-18);
      }

      .cls-17 {
        fill: url(#radial-gradient-7);
      }

      .cls-18 {
        fill: url(#radial-gradient-2);
      }

      .cls-19 {
        fill: url(#radial-gradient-16);
      }

      .cls-20 {
        fill: url(#radial-gradient-6);
      }

      .cls-21 {
        fill: url(#radial-gradient-12);
      }

      .cls-22 {
        fill: url(#radial-gradient-11);
      }
    </style>
    <radialGradient id="radial-gradient" cx="723.59" cy="856.72" fx="723.59" fy="856.72" r="76.98" gradientTransform="translate(452.67 -1039.76) rotate(59.54)" gradientUnits="userSpaceOnUse">
      <stop offset="0" stop-color="#f07"/>
      <stop offset=".14" stop-color="#fa0279"/>
      <stop offset=".31" stop-color="#eb0a7f"/>
      <stop offset=".49" stop-color="#d3178a"/>
      <stop offset=".67" stop-color="#b22998"/>
      <stop offset=".87" stop-color="#883fab"/>
      <stop offset=".9" stop-color="#8144af"/>
    </radialGradient>
    <radialGradient id="radial-gradient-2" cx="723.6" cy="863.22" fx="723.6" fy="863.22" r="72.06" gradientTransform="translate(231.01 -1094.74) rotate(48.13)" xlink:href="#radial-gradient"/>
    <radialGradient id="radial-gradient-3" cx="725.68" cy="873.65" fx="725.68" fy="873.65" r="60.55" gradientTransform="translate(231.01 -1094.74) rotate(48.13)" xlink:href="#radial-gradient"/>
    <radialGradient id="radial-gradient-4" cx="728.14" cy="822.62" fx="728.14" fy="822.62" r="47.47" gradientTransform="translate(231.01 -1094.74) rotate(48.13)" xlink:href="#radial-gradient"/>
    <radialGradient id="radial-gradient-5" cx="731.26" cy="853.89" fx="731.26" fy="853.89" r="15.96" gradientTransform="translate(231.01 -1094.74) rotate(48.13)" xlink:href="#radial-gradient"/>
    <radialGradient id="radial-gradient-6" cx="738.07" cy="832.1" fx="738.07" fy="832.1" r="33.08" gradientTransform="translate(231.01 -1094.74) rotate(48.13)" xlink:href="#radial-gradient"/>
    <radialGradient id="radial-gradient-7" cx="810.65" cy="569.02" fx="810.65" fy="569.02" r="21.56" gradientTransform="translate(297.32 -1169.2) rotate(52.19) scale(1 1.62)" xlink:href="#radial-gradient"/>
    <radialGradient id="radial-gradient-8" cx="730.47" cy="887.6" fx="730.47" fy="887.6" r="22.65" gradientTransform="translate(231.01 -1094.74) rotate(48.13)" xlink:href="#radial-gradient"/>
    <radialGradient id="radial-gradient-9" cx="-172.26" cy="691.59" fx="-172.26" fy="691.59" r="46.27" gradientTransform="translate(-32.48 -659.5) rotate(-20.18)" xlink:href="#radial-gradient"/>
    <radialGradient id="radial-gradient-10" cx="764.54" cy="849.77" fx="764.54" fy="849.77" r="22.71" gradientTransform="translate(231.01 -1094.74) rotate(48.13)" xlink:href="#radial-gradient"/>
    <radialGradient id="radial-gradient-11" cx="758.82" cy="863.45" fx="758.82" fy="863.45" r="15.71" gradientTransform="translate(231.01 -1094.74) rotate(48.13)" xlink:href="#radial-gradient"/>
    <radialGradient id="radial-gradient-12" cx="755.34" cy="892" fx="755.34" fy="892" r="13.29" gradientTransform="translate(231.01 -1094.74) rotate(48.13)" xlink:href="#radial-gradient"/>
    <radialGradient id="radial-gradient-13" cx="758.12" cy="845.94" fx="758.12" fy="845.94" r="43.54" gradientTransform="translate(231.01 -1094.74) rotate(48.13)" xlink:href="#radial-gradient"/>
    <radialGradient id="radial-gradient-14" cx="34.79" cy="795.11" fx="34.79" fy="795.11" r="41.44" gradientTransform="translate(-28.83 -798.72) rotate(-2.64)" xlink:href="#radial-gradient"/>
    <radialGradient id="radial-gradient-15" cx="704.94" cy="858.2" fx="704.94" fy="858.2" r="15.38" gradientTransform="translate(231.01 -1094.74) rotate(48.13)" xlink:href="#radial-gradient"/>
    <radialGradient id="radial-gradient-16" cx="708.46" cy="825.01" fx="708.46" fy="825.01" r="38.59" gradientTransform="translate(231.01 -1094.74) rotate(48.13)" xlink:href="#radial-gradient"/>
    <radialGradient id="radial-gradient-17" cx="725.56" cy="843.3" fx="725.56" fy="843.3" r="11.25" gradientTransform="translate(231.01 -1094.74) rotate(48.13)" xlink:href="#radial-gradient"/>
    <radialGradient id="radial-gradient-18" cx="1138.75" cy="445.39" fx="1138.75" fy="445.39" r="36.9" gradientTransform="translate(554.55 -1107.2) rotate(91.22) scale(1 1.05)" xlink:href="#radial-gradient"/>
    <radialGradient id="radial-gradient-19" cx="707.93" cy="876.53" fx="707.93" fy="876.53" r="15.06" gradientTransform="translate(231.01 -1094.74) rotate(48.13)" xlink:href="#radial-gradient"/>
    <radialGradient id="radial-gradient-20" cx="722.14" cy="898.2" fx="722.14" fy="898.2" r="12.68" gradientTransform="translate(231.01 -1094.74) rotate(48.13)" xlink:href="#radial-gradient"/>
    <radialGradient id="radial-gradient-21" cx="707.14" cy="875.6" fx="707.14" fy="875.6" r="27.9" gradientTransform="translate(231.01 -1094.74) rotate(48.13)" xlink:href="#radial-gradient"/>
    <radialGradient id="radial-gradient-22" cx="737.58" cy="880.48" fx="737.58" fy="880.48" r="43.16" gradientTransform="translate(604.05 -973.11) rotate(67.79)" gradientUnits="userSpaceOnUse">
      <stop offset=".05" stop-color="#f3a400"/>
      <stop offset=".41" stop-color="#f2a301" stop-opacity=".99"/>
      <stop offset=".54" stop-color="#f29f06" stop-opacity=".96"/>
      <stop offset=".63" stop-color="#f2990f" stop-opacity=".92"/>
      <stop offset=".7" stop-color="#f1911c" stop-opacity=".85"/>
      <stop offset=".77" stop-color="#f1852d" stop-opacity=".76"/>
      <stop offset=".82" stop-color="#f07841" stop-opacity=".64"/>
      <stop offset=".87" stop-color="#ef675a" stop-opacity=".51"/>
      <stop offset=".92" stop-color="#ee5476" stop-opacity=".35"/>
      <stop offset=".96" stop-color="#ed3f95" stop-opacity=".19"/>
      <stop offset="1" stop-color="#ec29b8" stop-opacity="0"/>
    </radialGradient>
  </defs>
  <g class="cls-23">
    <g id="Vrstva_1" data-name="Vrstva 1">
      <g>
        <g>
          <g>
            <circle class="cls-29" cx="66.46" cy="42.78" r="35.01" transform="translate(-7.15 13.98) rotate(-11.4)"/>
            <path class="cls-25" d="m42.86,19.13c14.4-12.9,36.53-11.69,49.43,2.71,6.51,7.27,9.42,16.5,8.86,25.53,1.28-9.77-1.53-20.03-8.63-27.94-12.9-14.4-35.04-15.61-49.43-2.71-7.13,6.39-11.02,15.05-11.57,23.91,1.05-8,4.85-15.68,11.34-21.49Z"/>
            <path class="cls-25" d="m38.6,40.03c12.77-11.44,32.39-10.36,43.83,2.4,5.59,6.24,8.18,14.11,7.89,21.87,9.35-11.63,9.19-28.65-1.1-40.13-11.44-12.77-31.06-13.84-43.83-2.4-6.53,5.85-9.99,13.84-10.29,21.96,1.05-1.3,2.21-2.54,3.5-3.7Z"/>
            <path class="cls-18" d="m101.4,40.67c-1.62,2.74-3.68,5.29-6.18,7.53-13.14,11.77-33.33,10.67-45.1-2.47-7.27-8.12-9.62-18.93-7.26-28.78-14.16,12.93-15.29,34.89-2.46,49.2,12.9,14.4,35.04,15.61,49.43,2.71,8.28-7.42,12.19-17.89,11.57-28.18Z"/>
            <path class="cls-11" d="m97.16,54.62c-1.74,3.16-4.03,6.1-6.88,8.64-13.58,12.17-34.44,11.02-46.61-2.55-8.5-9.48-10.49-22.52-6.29-33.67-6.56,11.94-5.27,27.2,4.34,37.92,12.17,13.58,33.03,14.72,46.61,2.55,4.08-3.65,7.02-8.1,8.83-12.89Z"/>
            <g>
              <path class="cls-6" d="m93.86,48.97c-3.75,1.39-8.36-1.72-10.29-6.94-1.93-5.22-.44-10.58,3.31-11.96s8.36,1.72,10.29,6.94c1.93,5.22.44,10.58-3.31,11.96Zm-14.27-16.45c-.89-2.4-3-3.83-4.73-3.19s-2.41,3.1-1.52,5.5c.89,2.4,3,3.83,4.73,3.19s2.41-3.1,1.52-5.5Z"/>
              <g>
                <path class="cls-7" d="m79.59,32.52c-.89-2.4-3-3.83-4.73-3.19-.26.1-.49.24-.7.42,1.48.07,3.03,1.36,3.75,3.32.75,2.04.37,4.11-.83,5.09.33.02.66,0,.98-.13,1.73-.64,2.41-3.1,1.52-5.5Z"/>
                <path class="cls-20" d="m97.17,37.01c-1.93-5.22-6.53-8.33-10.29-6.94-.22.08-.43.18-.64.29,3.53-.54,7.49,2.45,9.24,7.2,1.81,4.91.61,9.95-2.68,11.68.35-.05.7-.13,1.04-.26,3.76-1.39,5.24-6.74,3.31-11.96Z"/>
              </g>
            </g>
            <g>
              <path class="cls-17" d="m57.7,66.04c-2.47,1.92-6.64.69-9.31-2.75-2.67-3.44-2.83-7.78-.35-9.7,2.47-1.92,6.64-.69,9.31,2.75s2.83,7.78.35,9.7Z"/>
              <path class="cls-8" d="m59.17,63.87c-.11.11-.23.22-.36.32-2.47,1.92-6.64.69-9.31-2.75-1.9-2.45-2.52-5.36-1.83-7.52-2.09,2.05-1.82,6.12.71,9.38,2.67,3.44,6.83,4.67,9.31,2.75.71-.55,1.19-1.3,1.47-2.18Z"/>
            </g>
            <g>
              <path class="cls-10" d="m88.01,64.02c.85,2.32-2.69,5.76-7.91,7.68s-10.15,1.59-11-.73c-.85-2.32,2.69-5.76,7.91-7.68,5.22-1.92,10.15-1.59,11,.73Zm-23.63,8.46c-2.01-.24-3.73.28-3.84,1.18-.11.89,1.44,1.82,3.45,2.06,2.01.24,3.73-.28,3.84-1.18.11-.89-1.44-1.82-3.45-2.06Zm26.47-15.54c-1.7,2.23-2.28,4.66-1.29,5.41.99.76,3.18-.44,4.88-2.67s2.28-4.66,1.29-5.41c-.99-.76-3.18.44-4.88,2.67Zm-6.67.39c-1.94.59-3.3,1.77-3.03,2.63s2.05,1.08,3.99.49,3.3-1.77,3.03-2.63-2.05-1.08-3.99-.49Z"/>
              <g>
                <path class="cls-1" d="m93.72,58.44c-1.58,2.07-3.56,3.22-4.63,2.79.02.5.16.91.47,1.14.99.76,3.18-.44,4.88-2.67s2.28-4.66,1.29-5.41c-.07-.06-.17-.08-.25-.12.04,1.11-.58,2.73-1.76,4.27Z"/>
                <path class="cls-22" d="m84.42,59.2c-1.26.39-2.45.42-3.21.17-.09.21-.12.41-.06.6.26.86,2.05,1.08,3.99.49s3.3-1.77,3.03-2.63c-.09-.3-.38-.52-.78-.65-.31.75-1.46,1.57-2.97,2.03Z"/>
                <path class="cls-21" d="m67.07,73.4c-.23.83-1.87,1.31-3.8,1.07-1.11-.13-2.07-.48-2.69-.91,0,.04-.03.07-.04.1-.11.89,1.44,1.82,3.45,2.06,2.01.24,3.73-.28,3.84-1.18.05-.4-.25-.8-.76-1.15Z"/>
                <path class="cls-14" d="m88.01,64.02c-.12-.34-.34-.63-.63-.88.38,2.3-3.06,5.48-8,7.3-4.46,1.64-8.7,1.64-10.38.15.02.13.05.26.09.38.85,2.32,5.78,2.65,11,.73s8.77-5.36,7.91-7.68Z"/>
              </g>
            </g>
            <g>
              <path class="cls-3" d="m78.42,14.83c.11,2.47-4.3,4.68-9.86,4.94-5.56.26-10.16-1.54-10.27-4.01-.11-2.47,4.3-4.68,9.86-4.94,5.56-.26,10.16,1.54,10.27,4.01Zm5.58,1.76c-1.84-.86-3.64-.89-4.02-.08-.38.82.8,2.17,2.64,3.03,1.84.86,3.64.89,4.02.08.38-.82-.8-2.17-2.64-3.03Zm-31.11-2.91c-1.98.44-3.42,1.51-3.23,2.39.2.88,1.96,1.23,3.94.79,1.98-.44,3.42-1.51,3.23-2.39-.2-.88-1.96-1.24-3.94-.79Z"/>
              <g>
                <path class="cls-12" d="m52.32,15.31c1.71-.38,3.26-.17,3.77.47.53-.42.82-.88.73-1.3-.2-.88-1.96-1.23-3.94-.79s-3.42,1.51-3.23,2.39c.03.12.09.23.17.33.58-.46,1.46-.86,2.5-1.09Z"/>
                <path class="cls-19" d="m67.58,12.45c5.53-.26,10.11,1.52,10.27,3.97.38-.5.59-1.04.57-1.59-.11-2.47-4.71-4.27-10.27-4.01-5.56.26-9.97,2.47-9.86,4.94,0,.01,0,.03,0,.04,1.35-1.77,4.97-3.15,9.29-3.35Z"/>
                <path class="cls-4" d="m83.43,18.22c1.14.53,2.02,1.25,2.44,1.92.36-.09.64-.25.76-.51.38-.82-.8-2.17-2.64-3.03-1.84-.86-3.64-.89-4.02-.08-.15.31-.06.7.2,1.11.78-.19,2,0,3.26.59Z"/>
              </g>
            </g>
            <g>
              <path class="cls-16" d="m36.86,47.07c-1.96-.04-3.47-3.48-3.38-7.69.09-4.2,1.75-7.58,3.71-7.53,1.96.04,3.47,3.48,3.38,7.69-.09,4.2-1.75,7.58-3.71,7.53Zm3.64,5.87c-.39-2.06-1.49-3.58-2.45-3.39-.96.18-1.42,2-1.03,4.05.39,2.06,1.49,3.58,2.45,3.39.96-.18,1.42-2,1.03-4.05Zm3.67-22.88c.36-2.06-.13-3.87-1.1-4.04-.96-.17-2.03,1.37-2.39,3.43-.36,2.06.13,3.87,1.1,4.04.96.17,2.03-1.37,2.39-3.43Z"/>
              <g>
                <path class="cls-5" d="m41.79,33.48c.31.05.63-.08.93-.34-.6-.62-.86-2.08-.57-3.73.24-1.4.81-2.54,1.46-3.09-.15-.16-.33-.28-.52-.31-.96-.17-2.03,1.37-2.39,3.43-.36,2.06.13,3.87,1.1,4.04Z"/>
                <path class="cls-9" d="m38.49,53.56c-.31-1.62-.08-3.07.49-3.71-.3-.24-.61-.37-.91-.31-.96.18-1.42,2-1.03,4.05.39,2.06,1.49,3.58,2.45,3.39.21-.04.38-.17.54-.34-.66-.53-1.26-1.67-1.53-3.08Z"/>
                <path class="cls-2" d="m34.93,39.35c.08-3.62,1.32-6.61,2.91-7.35-.21-.09-.43-.15-.66-.16-1.96-.04-3.62,3.33-3.71,7.53-.09,4.2,1.43,7.64,3.38,7.69.27,0,.54-.07.8-.19-1.63-.7-2.81-3.81-2.73-7.53Z"/>
              </g>
            </g>
            <circle class="cls-24" cx="66.46" cy="42.78" r="42.78" transform="translate(-10.52 24.85) rotate(-19.66)"/>
          </g>
          <g class="cls-27">
            <g>
              <g class="cls-27">
                <path class="cls-28" d="m72.7,19.74c.02,2.43-3.46,4.43-7.77,4.47-4.31.04-7.82-1.9-7.85-4.33-.02-2.43,3.46-4.43,7.77-4.47,4.31-.04,7.82,1.9,7.85,4.33Z"/>
              </g>
              <g class="cls-27">
                <path class="cls-28" d="m83.83,22.78c-.5,1.34-2.83,1.71-5.2.83-2.38-.88-3.91-2.68-3.41-4.02.5-1.34,2.83-1.71,5.2-.83,2.38.88,3.91,2.68,3.41,4.02Z"/>
              </g>
            </g>
          </g>
        </g>
        <g>
          <path class="cls-28" d="m130.16,66.42c2.3-6.12-9.57-16.65-28.94-27.02.16,1.4.14,2.85.02,4.28,11.76,7.15,18.54,13.99,16.95,18.23-2.72,7.23-28.63,4.19-57.88-6.8C31.06,44.13,9.55,29.36,12.26,22.13c1.72-4.59,12.78-5.03,28.09-1.95.72-1.15,1.57-2.19,2.54-3.1C19.96,11.4,2.69,11.22.28,17.63c-3.33,8.87,23.04,26.97,58.91,40.44,35.86,13.47,67.64,17.2,70.97,8.34Z"/>
          <path class="cls-13" d="m105.81,43.31c.24-.34.57-.61.95-.82-1.77-1.03-3.61-2.06-5.54-3.09.16,1.4.14,2.85.02,4.28,11.76,7.15,18.54,13.99,16.95,18.23-2.72,7.23-28.63,4.19-57.88-6.8C31.06,44.13,9.55,29.36,12.26,22.13c1.72-4.59,12.78-5.03,28.09-1.95.72-1.15,1.57-2.19,2.54-3.1-12.63-3.13-23.53-4.58-31.19-4.19,7.87.73,21.29,2.19,20.15,3.61-1.6,1.99-27.04-5.94-21.61,8.93,5.43,14.88,46.27,29.61,62.19,35.09,15.91,5.48,38.62,9.11,48.65,5.19,10.03-3.91-18.02-18.54-15.28-22.41Z"/>
          <g class="cls-26">
            <g>
              <g class="cls-15">
                <path class="cls-28" d="m8.84,26.55c-.14.07-.54-.41-1.22-1.02-.67-.63-1.66-1.36-2.56-2.43-.89-1.05-1.52-2.49-1.41-3.79.04-.63.25-1.16.41-1.49.17-.34.31-.5.31-.5,0,0,.13-.17.4-.42.26-.25.67-.54,1.17-.8,1-.52,2.35-.8,3.6-.96,2.55-.38,5.11-.3,5.13,0,.02.3-2.44.78-4.79,1.53-1.2.36-2.29.76-2.93,1.21-.64.44-.82.79-.82.79,0,0-.31.27-.45.87-.15.6.07,1.67.66,2.64.58.97,1.45,1.94,1.95,2.79.53.84.68,1.51.55,1.57Z"/>
              </g>
              <g class="cls-15">
                <path class="cls-28" d="m111.85,70.2c.01-.3,4.11-.44,8.1-1.16,2.01-.33,3.95-.74,5.09-1.42.58-.32.96-.67,1.21-.93.25-.27.36-.43.36-.43,0,0,.14-.15.32-.44.18-.29.41-.72.46-1.27.06-.55-.07-1.27-.42-2.05-.35-.78-.88-1.65-1.44-2.44-1.13-1.61-2.56-3.02-3.73-3.97-1.17-.95-2.04-1.51-1.97-1.65.06-.13,1.07.16,2.46.94,1.38.77,3.08,2.08,4.48,3.71.7.82,1.33,1.66,1.85,2.59.52.92.85,2,.82,2.99-.03,1-.37,1.77-.62,2.25-.27.49-.47.73-.47.73,0,0-.19.25-.59.61-.39.36-1.01.84-1.81,1.2-1.61.78-3.79,1.01-5.83,1.16-4.16.33-8.3-.1-8.28-.41Z"/>
              </g>
            </g>
          </g>
        </g>
      </g>
    </g>
  </g>
</svg>